<?xml version="1.0" encoding="UTF-8" standalone="no"?>
<!DOCTYPE svg PUBLIC "-//W3C//DTD SVG 1.1//EN"
 "http://www.w3.org/Graphics/SVG/1.1/DTD/svg11.dtd">
<!-- Generated by graphviz version 2.36.0 (20140111.2315)
 -->
<!-- Title: G Pages: 1 -->
<svg width="704pt" height="2482pt"
 viewBox="0.00 0.00 704.00 2482.00" xmlns="http://www.w3.org/2000/svg" xmlns:xlink="http://www.w3.org/1999/xlink">
<g id="graph0" class="graph" transform="scale(1 1) rotate(0) translate(4 2478)">
<title>G</title>
<polygon fill="white" stroke="none" points="-4,4 -4,-2478 700,-2478 700,4 -4,4"/>
<g id="clust1" class="cluster"><title>cluster_Global</title>
<path fill="none" stroke="gray" d="M20,-8C20,-8 676,-8 676,-8 682,-8 688,-14 688,-20 688,-20 688,-2454 688,-2454 688,-2460 682,-2466 676,-2466 676,-2466 20,-2466 20,-2466 14,-2466 8,-2460 8,-2454 8,-2454 8,-20 8,-20 8,-14 14,-8 20,-8"/>
<text text-anchor="middle" x="348" y="-2453.2" font-family="Times,serif" font-size="11.00" fill="gray">Global</text>
</g>
<g id="clust2" class="cluster"><title>cluster_\Ezypay</title>
<path fill="none" stroke="gray" d="M250,-16C250,-16 668,-16 668,-16 674,-16 680,-22 680,-28 680,-28 680,-1674 680,-1674 680,-1680 674,-1686 668,-1686 668,-1686 250,-1686 250,-1686 244,-1686 238,-1680 238,-1674 238,-1674 238,-28 238,-28 238,-22 244,-16 250,-16"/>
<text text-anchor="middle" x="459" y="-1673.2" font-family="Times,serif" font-size="11.00" fill="gray">Ezypay</text>
</g>
<g id="clust3" class="cluster"><title>cluster_\Ezypay\Result</title>
<path fill="none" stroke="gray" d="M258,-1262C258,-1262 653,-1262 653,-1262 659,-1262 665,-1268 665,-1274 665,-1274 665,-1646 665,-1646 665,-1652 659,-1658 653,-1658 653,-1658 258,-1658 258,-1658 252,-1658 246,-1652 246,-1646 246,-1646 246,-1274 246,-1274 246,-1268 252,-1262 258,-1262"/>
<text text-anchor="middle" x="455.5" y="-1645.2" font-family="Times,serif" font-size="11.00" fill="gray">Result</text>
</g>
<g id="clust4" class="cluster"><title>cluster_\Ezypay\Object</title>
<path fill="none" stroke="gray" d="M522,-696C522,-696 660,-696 660,-696 666,-696 672,-702 672,-708 672,-708 672,-1242 672,-1242 672,-1248 666,-1254 660,-1254 660,-1254 522,-1254 522,-1254 516,-1254 510,-1248 510,-1242 510,-1242 510,-708 510,-708 510,-702 516,-696 522,-696"/>
<text text-anchor="middle" x="591" y="-1241.2" font-family="Times,serif" font-size="11.00" fill="gray">Object</text>
</g>
<g id="clust5" class="cluster"><title>cluster_\Ezypay\Resource</title>
<path fill="none" stroke="gray" d="M305,-158C305,-158 639,-158 639,-158 645,-158 651,-164 651,-170 651,-170 651,-596 651,-596 651,-602 645,-608 639,-608 639,-608 305,-608 305,-608 299,-608 293,-602 293,-596 293,-596 293,-170 293,-170 293,-164 299,-158 305,-158"/>
<text text-anchor="middle" x="472" y="-595.2" font-family="Times,serif" font-size="11.00" fill="gray">Resource</text>
</g>
<g id="clust6" class="cluster"><title>cluster_\Ezypay\Validation</title>
<path fill="none" stroke="gray" d="M281,-24C281,-24 643,-24 643,-24 649,-24 655,-30 655,-36 655,-36 655,-138 655,-138 655,-144 649,-150 643,-150 643,-150 281,-150 281,-150 275,-150 269,-144 269,-138 269,-138 269,-36 269,-36 269,-30 275,-24 281,-24"/>
<text text-anchor="middle" x="462" y="-137.2" font-family="Times,serif" font-size="11.00" fill="gray">Validation</text>
</g>
<g id="clust7" class="cluster"><title>cluster_\Ezypay\Driver</title>
<path fill="none" stroke="gray" d="M568,-616C568,-616 614,-616 614,-616 620,-616 626,-622 626,-628 626,-628 626,-676 626,-676 626,-682 620,-688 614,-688 614,-688 568,-688 568,-688 562,-688 556,-682 556,-676 556,-676 556,-628 556,-628 556,-622 562,-616 568,-616"/>
<text text-anchor="middle" x="591" y="-675.2" font-family="Times,serif" font-size="11.00" fill="gray">Driver</text>
</g>
<!-- \\Ezypay\\Result\\ResultProducer -->
<g id="node1" class="node"><title>\\Ezypay\\Result\\ResultProducer</title>
<polygon fill="none" stroke="black" points="646.5,-1630 535.5,-1630 535.5,-1594 646.5,-1594 646.5,-1630"/>
<text text-anchor="middle" x="591" y="-1609.2" font-family="Courier,monospace" font-size="11.00">ResultProducer</text>
</g>
<!-- \\Ezypay\\Result\\ResultAbstractFactory -->
<g id="node2" class="node"><title>\\Ezypay\\Result\\ResultAbstractFactory</title>
<polygon fill="none" stroke="black" points="412,-1333 254,-1333 254,-1297 412,-1297 412,-1333"/>
<text text-anchor="start" x="299" y="-1318.2" font-family="Courier,monospace" font-size="11.00">«abstract»</text>
<text text-anchor="start" x="262" y="-1306.2" font-family="Courier,monospace" font-size="11.00">ResultAbstractFactory</text>
</g>
<!-- \\Ezypay\\Result\\ResultJson -->
<g id="node3" class="node"><title>\\Ezypay\\Result\\ResultJson</title>
<polygon fill="none" stroke="black" points="633,-1414 549,-1414 549,-1378 633,-1378 633,-1414"/>
<text text-anchor="middle" x="591" y="-1393.2" font-family="Courier,monospace" font-size="11.00">ResultJson</text>
</g>
<!-- \\result -->
<g id="node38" class="node"><title>\\result</title>
<polygon fill="none" stroke="black" points="110.5,-2382 53.5,-2382 53.5,-2346 110.5,-2346 110.5,-2382"/>
<text text-anchor="middle" x="82" y="-2361.2" font-family="Courier,monospace" font-size="11.00">result</text>
</g>
<!-- \\Ezypay\\Result\\ResultJson&#45;&gt;\\result -->
<g id="edge14" class="edge"><title>\\Ezypay\\Result\\ResultJson&#45;&gt;\\result</title>
<path fill="none" stroke="black" stroke-dasharray="1,5" d="M548.756,-1400.51C534.29,-1404.23 519.336,-1410.95 510,-1423 390.465,-1577.3 582.955,-2159.93 446,-2299 410.623,-2334.92 269.385,-2308.84 220,-2319 185.384,-2326.12 147.287,-2339.07 120.074,-2349.26"/>
<polygon fill="none" stroke="black" points="118.672,-2346.04 110.567,-2352.87 121.158,-2352.59 118.672,-2346.04"/>
</g>
<!-- \\Ezypay\\Result\\ResultFactoryJson -->
<g id="node4" class="node"><title>\\Ezypay\\Result\\ResultFactoryJson</title>
<polygon fill="none" stroke="black" points="656.5,-1360 525.5,-1360 525.5,-1324 656.5,-1324 656.5,-1360"/>
<text text-anchor="middle" x="591" y="-1339.2" font-family="Courier,monospace" font-size="11.00">ResultFactoryJson</text>
</g>
<!-- \\Ezypay\\Result\\ResultFactoryJson&#45;&gt;\\Ezypay\\Result\\ResultAbstractFactory -->
<g id="edge21" class="edge"><title>\\Ezypay\\Result\\ResultFactoryJson&#45;&gt;\\Ezypay\\Result\\ResultAbstractFactory</title>
<path fill="none" stroke="black" d="M525.4,-1335.19C494.258,-1331.9 456.417,-1327.91 422.63,-1324.35"/>
<polygon fill="none" stroke="black" points="422.599,-1320.83 412.287,-1323.26 421.864,-1327.79 422.599,-1320.83"/>
</g>
<!-- \\Ezypay\\Result\\ResultList -->
<g id="node5" class="node"><title>\\Ezypay\\Result\\ResultList</title>
<polygon fill="none" stroke="black" points="633,-1468 549,-1468 549,-1432 633,-1432 633,-1468"/>
<text text-anchor="middle" x="591" y="-1447.2" font-family="Courier,monospace" font-size="11.00">ResultList</text>
</g>
<!-- \\resultInterfaceList -->
<g id="node43" class="node"><title>\\resultInterfaceList</title>
<polygon fill="none" stroke="black" points="405.5,-2364 260.5,-2364 260.5,-2328 405.5,-2328 405.5,-2364"/>
<text text-anchor="middle" x="333" y="-2343.2" font-family="Courier,monospace" font-size="11.00">resultInterfaceList</text>
</g>
<!-- \\Ezypay\\Result\\ResultList&#45;&gt;\\resultInterfaceList -->
<g id="edge23" class="edge"><title>\\Ezypay\\Result\\ResultList&#45;&gt;\\resultInterfaceList</title>
<path fill="none" stroke="black" stroke-dasharray="1,5" d="M548.778,-1454.52C534.314,-1458.25 519.357,-1464.96 510,-1477 395.508,-1624.28 563.935,-2169.47 446,-2314 437.93,-2323.89 427.029,-2330.85 415.185,-2335.72"/>
<polygon fill="none" stroke="black" points="413.746,-2332.52 405.521,-2339.2 416.115,-2339.11 413.746,-2332.52"/>
</g>
<!-- \\Ezypay\\Result\\ResultFactory -->
<g id="node6" class="node"><title>\\Ezypay\\Result\\ResultFactory</title>
<polygon fill="none" stroke="black" points="643,-1306 539,-1306 539,-1270 643,-1270 643,-1306"/>
<text text-anchor="middle" x="591" y="-1285.2" font-family="Courier,monospace" font-size="11.00">ResultFactory</text>
</g>
<!-- \\Ezypay\\Result\\ResultFactory&#45;&gt;\\Ezypay\\Result\\ResultAbstractFactory -->
<g id="edge24" class="edge"><title>\\Ezypay\\Result\\ResultFactory&#45;&gt;\\Ezypay\\Result\\ResultAbstractFactory</title>
<path fill="none" stroke="black" d="M538.81,-1293.4C505.592,-1296.9 461.422,-1301.56 422.607,-1305.65"/>
<polygon fill="none" stroke="black" points="421.919,-1302.21 412.341,-1306.74 422.653,-1309.17 421.919,-1302.21"/>
</g>
<!-- \\Ezypay\\Result\\resultSingle -->
<g id="node7" class="node"><title>\\Ezypay\\Result\\resultSingle</title>
<polygon fill="none" stroke="black" points="640,-1522 542,-1522 542,-1486 640,-1486 640,-1522"/>
<text text-anchor="middle" x="591" y="-1501.2" font-family="Courier,monospace" font-size="11.00">resultSingle</text>
</g>
<!-- \\Ezypay\\Result\\resultSingle&#45;&gt;\\result -->
<g id="edge27" class="edge"><title>\\Ezypay\\Result\\resultSingle&#45;&gt;\\result</title>
<path fill="none" stroke="black" stroke-dasharray="1,5" d="M541.669,-1510.6C529.571,-1514.59 517.825,-1520.93 510,-1531 394.862,-1679.18 583.626,-2245.44 446,-2373 422.592,-2394.7 209.049,-2376.43 120.845,-2367.86"/>
<polygon fill="none" stroke="black" points="121.026,-2364.36 110.731,-2366.86 120.341,-2371.32 121.026,-2364.36"/>
</g>
<!-- \\Ezypay\\Result\\ResultError -->
<g id="node8" class="node"><title>\\Ezypay\\Result\\ResultError</title>
<polygon fill="none" stroke="black" points="636.5,-1576 545.5,-1576 545.5,-1540 636.5,-1540 636.5,-1576"/>
<text text-anchor="middle" x="591" y="-1555.2" font-family="Courier,monospace" font-size="11.00">ResultError</text>
</g>
<!-- \\resultInterfaceError -->
<g id="node44" class="node"><title>\\resultInterfaceError</title>
<polygon fill="none" stroke="black" points="409,-2438 257,-2438 257,-2402 409,-2402 409,-2438"/>
<text text-anchor="middle" x="333" y="-2417.2" font-family="Courier,monospace" font-size="11.00">resultInterfaceError</text>
</g>
<!-- \\Ezypay\\Result\\ResultError&#45;&gt;\\resultInterfaceError -->
<g id="edge28" class="edge"><title>\\Ezypay\\Result\\ResultError&#45;&gt;\\resultInterfaceError</title>
<path fill="none" stroke="black" stroke-dasharray="1,5" d="M545.455,-1563.45C532.068,-1567.33 518.655,-1573.9 510,-1585 399.904,-1726.15 559.396,-2249.49 446,-2388 438.718,-2396.9 429.147,-2403.42 418.663,-2408.18"/>
<polygon fill="none" stroke="black" points="417.244,-2404.98 409.249,-2411.93 419.834,-2411.48 417.244,-2404.98"/>
</g>
<!-- \\Ezypay\\Object\\Payment -->
<g id="node9" class="node"><title>\\Ezypay\\Object\\Payment</title>
<polygon fill="none" stroke="black" points="623,-1226 559,-1226 559,-1190 623,-1190 623,-1226"/>
<text text-anchor="middle" x="591" y="-1205.2" font-family="Courier,monospace" font-size="11.00">Payment</text>
</g>
<!-- \\Ezypay\\Object\\InvoiceItem -->
<g id="node10" class="node"><title>\\Ezypay\\Object\\InvoiceItem</title>
<polygon fill="none" stroke="black" points="636.5,-1172 545.5,-1172 545.5,-1136 636.5,-1136 636.5,-1172"/>
<text text-anchor="middle" x="591" y="-1151.2" font-family="Courier,monospace" font-size="11.00">InvoiceItem</text>
</g>
<!-- \\Ezypay\\Object\\Invoice -->
<g id="node11" class="node"><title>\\Ezypay\\Object\\Invoice</title>
<polygon fill="none" stroke="black" points="623,-1118 559,-1118 559,-1082 623,-1082 623,-1118"/>
<text text-anchor="middle" x="591" y="-1097.2" font-family="Courier,monospace" font-size="11.00">Invoice</text>
</g>
<!-- \\Ezypay\\Object\\ObjectFactory -->
<g id="node12" class="node"><title>\\Ezypay\\Object\\ObjectFactory</title>
<polygon fill="none" stroke="black" points="643,-1064 539,-1064 539,-1028 643,-1028 643,-1064"/>
<text text-anchor="middle" x="591" y="-1043.2" font-family="Courier,monospace" font-size="11.00">ObjectFactory</text>
</g>
<!-- \\Ezypay\\Object\\Settlement -->
<g id="node13" class="node"><title>\\Ezypay\\Object\\Settlement</title>
<polygon fill="none" stroke="black" points="633,-1010 549,-1010 549,-974 633,-974 633,-1010"/>
<text text-anchor="middle" x="591" y="-989.2" font-family="Courier,monospace" font-size="11.00">Settlement</text>
</g>
<!-- \\Ezypay\\Object\\Subscription -->
<g id="node14" class="node"><title>\\Ezypay\\Object\\Subscription</title>
<polygon fill="none" stroke="black" points="640,-956 542,-956 542,-920 640,-920 640,-956"/>
<text text-anchor="middle" x="591" y="-935.2" font-family="Courier,monospace" font-size="11.00">Subscription</text>
</g>
<!-- \\Ezypay\\Object\\SubscriptionPreview -->
<g id="node15" class="node"><title>\\Ezypay\\Object\\SubscriptionPreview</title>
<polygon fill="none" stroke="black" points="663.5,-902 518.5,-902 518.5,-866 663.5,-866 663.5,-902"/>
<text text-anchor="middle" x="591" y="-881.2" font-family="Courier,monospace" font-size="11.00">SubscriptionPreview</text>
</g>
<!-- \\Ezypay\\Object\\Customer -->
<g id="node16" class="node"><title>\\Ezypay\\Object\\Customer</title>
<polygon fill="none" stroke="black" points="626.5,-848 555.5,-848 555.5,-812 626.5,-812 626.5,-848"/>
<text text-anchor="middle" x="591" y="-827.2" font-family="Courier,monospace" font-size="11.00">Customer</text>
</g>
<!-- \\Ezypay\\Object\\PaymentMethod -->
<g id="node17" class="node"><title>\\Ezypay\\Object\\PaymentMethod</title>
<polygon fill="none" stroke="black" points="643,-794 539,-794 539,-758 643,-758 643,-794"/>
<text text-anchor="middle" x="591" y="-773.2" font-family="Courier,monospace" font-size="11.00">PaymentMethod</text>
</g>
<!-- \\Ezypay\\Object\\Plan -->
<g id="node18" class="node"><title>\\Ezypay\\Object\\Plan</title>
<polygon fill="none" stroke="black" points="618,-740 564,-740 564,-704 618,-704 618,-740"/>
<text text-anchor="middle" x="591" y="-719.2" font-family="Courier,monospace" font-size="11.00">Plan</text>
</g>
<!-- \\Ezypay\\Resource\\Invoice -->
<g id="node19" class="node"><title>\\Ezypay\\Resource\\Invoice</title>
<polygon fill="none" stroke="black" points="623,-364 559,-364 559,-328 623,-328 623,-364"/>
<text text-anchor="middle" x="591" y="-343.2" font-family="Courier,monospace" font-size="11.00">Invoice</text>
</g>
<!-- \\Ezypay\\Resource\\Resurce -->
<g id="node24" class="node"><title>\\Ezypay\\Resource\\Resurce</title>
<polygon fill="none" stroke="black" points="365,-391 301,-391 301,-355 365,-355 365,-391"/>
<text text-anchor="middle" x="333" y="-370.2" font-family="Courier,monospace" font-size="11.00">Resurce</text>
</g>
<!-- \\Ezypay\\Resource\\Invoice&#45;&gt;\\Ezypay\\Resource\\Resurce -->
<g id="edge1" class="edge"><title>\\Ezypay\\Resource\\Invoice&#45;&gt;\\Ezypay\\Resource\\Resurce</title>
<path fill="none" stroke="black" d="M558.865,-349.284C512.865,-354.135 426.669,-363.226 375.394,-368.634"/>
<polygon fill="none" stroke="black" points="374.896,-365.167 365.318,-369.697 375.63,-372.129 374.896,-365.167"/>
</g>
<!-- \\resourceInterfaceUpdate -->
<g id="node33" class="node"><title>\\resourceInterfaceUpdate</title>
<polygon fill="none" stroke="black" points="419,-1966 247,-1966 247,-1930 419,-1930 419,-1966"/>
<text text-anchor="middle" x="333" y="-1945.2" font-family="Courier,monospace" font-size="11.00">resourceInterfaceUpdate</text>
</g>
<!-- \\Ezypay\\Resource\\Invoice&#45;&gt;\\resourceInterfaceUpdate -->
<g id="edge4" class="edge"><title>\\Ezypay\\Resource\\Invoice&#45;&gt;\\resourceInterfaceUpdate</title>
<path fill="none" stroke="black" stroke-dasharray="1,5" d="M558.843,-348.171C541.568,-351.133 521.343,-357.87 510,-373 406.738,-510.737 555.283,-1787.99 446,-1921 441.112,-1926.95 435.16,-1931.72 428.576,-1935.53"/>
<polygon fill="none" stroke="black" points="426.652,-1932.58 419.247,-1940.16 429.761,-1938.85 426.652,-1932.58"/>
</g>
<!-- \\resourceInterfaceCreate -->
<g id="node37" class="node"><title>\\resourceInterfaceCreate</title>
<polygon fill="none" stroke="black" points="419,-2074 247,-2074 247,-2038 419,-2038 419,-2074"/>
<text text-anchor="middle" x="333" y="-2053.2" font-family="Courier,monospace" font-size="11.00">resourceInterfaceCreate</text>
</g>
<!-- \\Ezypay\\Resource\\Invoice&#45;&gt;\\resourceInterfaceCreate -->
<g id="edge3" class="edge"><title>\\Ezypay\\Resource\\Invoice&#45;&gt;\\resourceInterfaceCreate</title>
<path fill="none" stroke="black" stroke-dasharray="1,5" d="M558.828,-348.16C541.548,-351.117 521.322,-357.855 510,-373 399.744,-520.48 562.703,-1886.57 446,-2029 441.12,-2034.96 435.174,-2039.73 428.594,-2043.55"/>
<polygon fill="none" stroke="black" points="426.67,-2040.59 419.268,-2048.17 429.782,-2046.86 426.67,-2040.59"/>
</g>
<!-- \\resourceInterfaceInvoice -->
<g id="node39" class="node"><title>\\resourceInterfaceInvoice</title>
<polygon fill="none" stroke="black" points="422.5,-1912 243.5,-1912 243.5,-1876 422.5,-1876 422.5,-1912"/>
<text text-anchor="middle" x="333" y="-1891.2" font-family="Courier,monospace" font-size="11.00">resourceInterfaceInvoice</text>
</g>
<!-- \\Ezypay\\Resource\\Invoice&#45;&gt;\\resourceInterfaceInvoice -->
<g id="edge2" class="edge"><title>\\Ezypay\\Resource\\Invoice&#45;&gt;\\resourceInterfaceInvoice</title>
<path fill="none" stroke="black" stroke-dasharray="1,5" d="M558.852,-348.177C541.579,-351.141 521.354,-357.879 510,-373 410.235,-505.866 551.573,-1738.7 446,-1867 441.83,-1872.07 436.889,-1876.28 431.443,-1879.77"/>
<polygon fill="none" stroke="black" points="429.582,-1876.8 422.508,-1884.69 432.956,-1882.93 429.582,-1876.8"/>
</g>
<!-- \\Ezypay\\Resource\\Plan -->
<g id="node20" class="node"><title>\\Ezypay\\Resource\\Plan</title>
<polygon fill="none" stroke="black" points="618,-310 564,-310 564,-274 618,-274 618,-310"/>
<text text-anchor="middle" x="591" y="-289.2" font-family="Courier,monospace" font-size="11.00">Plan</text>
</g>
<!-- \\Ezypay\\Resource\\Plan&#45;&gt;\\Ezypay\\Resource\\Resurce -->
<g id="edge5" class="edge"><title>\\Ezypay\\Resource\\Plan&#45;&gt;\\Ezypay\\Resource\\Resurce</title>
<path fill="none" stroke="black" d="M563.568,-300.363C518.802,-314.527 427.78,-343.327 374.787,-360.095"/>
<polygon fill="none" stroke="black" points="373.515,-356.826 365.037,-363.18 375.627,-363.5 373.515,-356.826"/>
</g>
<!-- \\Ezypay\\Resource\\Plan&#45;&gt;\\resourceInterfaceUpdate -->
<g id="edge8" class="edge"><title>\\Ezypay\\Resource\\Plan&#45;&gt;\\resourceInterfaceUpdate</title>
<path fill="none" stroke="black" stroke-dasharray="1,5" d="M563.957,-293.381C545.724,-295.852 522.474,-302.337 510,-319 403.241,-461.608 558.993,-1783.28 446,-1921 441.116,-1926.95 435.167,-1931.73 428.585,-1935.54"/>
<polygon fill="none" stroke="black" points="426.661,-1932.59 419.258,-1940.17 429.772,-1938.86 426.661,-1932.59"/>
</g>
<!-- \\resourceInterfacePlan -->
<g id="node36" class="node"><title>\\resourceInterfacePlan</title>
<polygon fill="none" stroke="black" points="412,-1858 254,-1858 254,-1822 412,-1822 412,-1858"/>
<text text-anchor="middle" x="333" y="-1837.2" font-family="Courier,monospace" font-size="11.00">resourceInterfacePlan</text>
</g>
<!-- \\Ezypay\\Resource\\Plan&#45;&gt;\\resourceInterfacePlan -->
<g id="edge6" class="edge"><title>\\Ezypay\\Resource\\Plan&#45;&gt;\\resourceInterfacePlan</title>
<path fill="none" stroke="black" stroke-dasharray="1,5" d="M563.972,-293.392C545.746,-295.868 522.498,-302.355 510,-319 410.235,-451.866 551.573,-1684.7 446,-1813 439.471,-1820.93 431.052,-1826.77 421.764,-1831.03"/>
<polygon fill="none" stroke="black" points="420.246,-1827.87 412.224,-1834.79 422.811,-1834.38 420.246,-1827.87"/>
</g>
<!-- \\Ezypay\\Resource\\Plan&#45;&gt;\\resourceInterfaceCreate -->
<g id="edge7" class="edge"><title>\\Ezypay\\Resource\\Plan&#45;&gt;\\resourceInterfaceCreate</title>
<path fill="none" stroke="black" stroke-dasharray="1,5" d="M563.945,-293.372C545.706,-295.838 522.453,-302.321 510,-319 396.247,-471.351 566.413,-1881.86 446,-2029 441.08,-2035.01 435.074,-2039.82 428.425,-2043.66"/>
<polygon fill="none" stroke="black" points="426.425,-2040.74 419.002,-2048.3 429.519,-2047.02 426.425,-2040.74"/>
</g>
<!-- \\Ezypay\\Resource\\Subscription -->
<g id="node21" class="node"><title>\\Ezypay\\Resource\\Subscription</title>
<polygon fill="none" stroke="black" points="640,-418 542,-418 542,-382 640,-382 640,-418"/>
<text text-anchor="middle" x="591" y="-397.2" font-family="Courier,monospace" font-size="11.00">Subscription</text>
</g>
<!-- \\Ezypay\\Resource\\Subscription&#45;&gt;\\Ezypay\\Resource\\Resurce -->
<g id="edge10" class="edge"><title>\\Ezypay\\Resource\\Subscription&#45;&gt;\\Ezypay\\Resource\\Resurce</title>
<path fill="none" stroke="black" d="M541.848,-394.922C493.744,-389.848 420.587,-382.132 375.122,-377.337"/>
<polygon fill="none" stroke="black" points="375.339,-373.841 365.027,-376.272 374.605,-380.802 375.339,-373.841"/>
</g>
<!-- \\Ezypay\\Resource\\Subscription&#45;&gt;\\resourceInterfaceUpdate -->
<g id="edge13" class="edge"><title>\\Ezypay\\Resource\\Subscription&#45;&gt;\\resourceInterfaceUpdate</title>
<path fill="none" stroke="black" stroke-dasharray="1,5" d="M541.867,-406.295C529.619,-410.271 517.745,-416.685 510,-427 410.235,-559.866 551.573,-1792.7 446,-1921 441.107,-1926.95 435.153,-1931.71 428.567,-1935.52"/>
<polygon fill="none" stroke="black" points="426.642,-1932.57 419.235,-1940.15 429.749,-1938.85 426.642,-1932.57"/>
</g>
<!-- \\resourceInterfaceSubscription -->
<g id="node34" class="node"><title>\\resourceInterfaceSubscription</title>
<polygon fill="none" stroke="black" points="439,-2020 227,-2020 227,-1984 439,-1984 439,-2020"/>
<text text-anchor="middle" x="333" y="-1999.2" font-family="Courier,monospace" font-size="11.00">resourceInterfaceSubscription</text>
</g>
<!-- \\Ezypay\\Resource\\Subscription&#45;&gt;\\resourceInterfaceSubscription -->
<g id="edge11" class="edge"><title>\\Ezypay\\Resource\\Subscription&#45;&gt;\\resourceInterfaceSubscription</title>
<path fill="none" stroke="black" stroke-dasharray="1,5" d="M541.857,-406.287C529.609,-410.263 517.738,-416.679 510,-427 406.738,-564.737 555.283,-1841.99 446,-1975 445.5,-1975.61 444.989,-1976.2 444.467,-1976.79"/>
<polygon fill="none" stroke="black" points="441.993,-1974.31 437.122,-1983.72 446.797,-1979.4 441.993,-1974.31"/>
</g>
<!-- \\Ezypay\\Resource\\Subscription&#45;&gt;\\resourceInterfaceCreate -->
<g id="edge12" class="edge"><title>\\Ezypay\\Resource\\Subscription&#45;&gt;\\resourceInterfaceCreate</title>
<path fill="none" stroke="black" stroke-dasharray="1,5" d="M541.848,-406.28C529.6,-410.256 517.731,-416.674 510,-427 403.241,-569.608 558.993,-1891.28 446,-2029 441.116,-2034.95 435.167,-2039.73 428.585,-2043.54"/>
<polygon fill="none" stroke="black" points="426.661,-2040.59 419.258,-2048.17 429.772,-2046.86 426.661,-2040.59"/>
</g>
<!-- \\Ezypay\\Resource\\PaymentMethod -->
<g id="node22" class="node"><title>\\Ezypay\\Resource\\PaymentMethod</title>
<polygon fill="none" stroke="black" points="643,-580 539,-580 539,-544 643,-544 643,-580"/>
<text text-anchor="middle" x="591" y="-559.2" font-family="Courier,monospace" font-size="11.00">PaymentMethod</text>
</g>
<!-- \\Ezypay\\Resource\\PaymentMethod&#45;&gt;\\Ezypay\\Resource\\Resurce -->
<g id="edge15" class="edge"><title>\\Ezypay\\Resource\\PaymentMethod&#45;&gt;\\Ezypay\\Resource\\Resurce</title>
<path fill="none" stroke="black" d="M538.655,-548.234C528.81,-544.618 518.829,-540.229 510,-535 446.818,-497.577 386.95,-434.562 355.961,-399.164"/>
<polygon fill="none" stroke="black" points="358.269,-396.481 349.078,-391.21 352.975,-401.062 358.269,-396.481"/>
</g>
<!-- \\Ezypay\\Resource\\PaymentMethod&#45;&gt;\\resourceInterfaceCreate -->
<g id="edge17" class="edge"><title>\\Ezypay\\Resource\\PaymentMethod&#45;&gt;\\resourceInterfaceCreate</title>
<path fill="none" stroke="black" stroke-dasharray="1,5" d="M545.026,-580.029C531.439,-587.781 518.013,-598.282 510,-612 430.507,-748.089 546.283,-1907.42 446,-2029 441.1,-2034.94 435.141,-2039.7 428.552,-2043.51"/>
<polygon fill="none" stroke="black" points="426.627,-2040.56 419.217,-2048.13 429.732,-2046.83 426.627,-2040.56"/>
</g>
<!-- \\resourceInterfacePaymentMethods -->
<g id="node46" class="node"><title>\\resourceInterfacePaymentMethods</title>
<polygon fill="none" stroke="black" points="446,-2236 220,-2236 220,-2200 446,-2200 446,-2236"/>
<text text-anchor="middle" x="333" y="-2215.2" font-family="Courier,monospace" font-size="11.00">resourceInterfacePaymentMethods</text>
</g>
<!-- \\Ezypay\\Resource\\PaymentMethod&#45;&gt;\\resourceInterfacePaymentMethods -->
<g id="edge16" class="edge"><title>\\Ezypay\\Resource\\PaymentMethod&#45;&gt;\\resourceInterfacePaymentMethods</title>
<path fill="none" stroke="black" stroke-dasharray="1,5" d="M544.99,-580.007C531.4,-587.758 517.981,-598.263 510,-612 421.787,-763.822 557.413,-2055.29 446,-2191 445.5,-2191.61 444.989,-2192.21 444.468,-2192.79"/>
<polygon fill="none" stroke="black" points="441.993,-2190.31 437.125,-2199.72 446.799,-2195.4 441.993,-2190.31"/>
</g>
<!-- \\Ezypay\\Resource\\Payment -->
<g id="node23" class="node"><title>\\Ezypay\\Resource\\Payment</title>
<polygon fill="none" stroke="black" points="623,-202 559,-202 559,-166 623,-166 623,-202"/>
<text text-anchor="middle" x="591" y="-181.2" font-family="Courier,monospace" font-size="11.00">Payment</text>
</g>
<!-- \\Ezypay\\Resource\\Payment&#45;&gt;\\Ezypay\\Resource\\Resurce -->
<g id="edge19" class="edge"><title>\\Ezypay\\Resource\\Payment&#45;&gt;\\Ezypay\\Resource\\Resurce</title>
<path fill="none" stroke="black" d="M558.683,-191.284C543.35,-195.651 525.009,-202.11 510,-211 446.818,-248.423 386.95,-311.438 355.961,-346.836"/>
<polygon fill="none" stroke="black" points="352.975,-344.938 349.078,-354.79 358.269,-349.519 352.975,-344.938"/>
</g>
<!-- \\resourceInterface -->
<g id="node32" class="node"><title>\\resourceInterface</title>
<polygon fill="none" stroke="black" points="147.5,-1966 16.5,-1966 16.5,-1930 147.5,-1930 147.5,-1966"/>
<text text-anchor="middle" x="82" y="-1945.2" font-family="Courier,monospace" font-size="11.00">resourceInterface</text>
</g>
<!-- \\Ezypay\\Resource\\Payment&#45;&gt;\\resourceInterface -->
<g id="edge20" class="edge"><title>\\Ezypay\\Resource\\Payment&#45;&gt;\\resourceInterface</title>
<path fill="none" stroke="black" stroke-dasharray="1,5" d="M558.846,-186.173C541.572,-189.136 521.347,-195.873 510,-211 408.033,-346.933 563.336,-1616.09 446,-1739 411.185,-1775.47 263.856,-1734.13 220,-1759 154.919,-1795.91 112.455,-1877.88 93.8347,-1920.72"/>
<polygon fill="none" stroke="black" points="90.5904,-1919.41 89.9179,-1929.98 97.0373,-1922.13 90.5904,-1919.41"/>
</g>
<!-- \\Ezypay\\Resource\\Settlement -->
<g id="node25" class="node"><title>\\Ezypay\\Resource\\Settlement</title>
<polygon fill="none" stroke="black" points="633,-256 549,-256 549,-220 633,-220 633,-256"/>
<text text-anchor="middle" x="591" y="-235.2" font-family="Courier,monospace" font-size="11.00">Settlement</text>
</g>
<!-- \\Ezypay\\Resource\\Settlement&#45;&gt;\\Ezypay\\Resource\\Resurce -->
<g id="edge25" class="edge"><title>\\Ezypay\\Resource\\Settlement&#45;&gt;\\Ezypay\\Resource\\Resurce</title>
<path fill="none" stroke="black" d="M548.607,-250.004C535.98,-254.185 522.213,-259.281 510,-265 457.922,-289.387 402.007,-325.615 367.51,-349.27"/>
<polygon fill="none" stroke="black" points="365.456,-346.435 359.217,-354.999 369.434,-352.195 365.456,-346.435"/>
</g>
<!-- \\resourceInterfaceSettlement -->
<g id="node40" class="node"><title>\\resourceInterfaceSettlement</title>
<polygon fill="none" stroke="black" points="432.5,-1804 233.5,-1804 233.5,-1768 432.5,-1768 432.5,-1804"/>
<text text-anchor="middle" x="333" y="-1783.2" font-family="Courier,monospace" font-size="11.00">resourceInterfaceSettlement</text>
</g>
<!-- \\Ezypay\\Resource\\Settlement&#45;&gt;\\resourceInterfaceSettlement -->
<g id="edge26" class="edge"><title>\\Ezypay\\Resource\\Settlement&#45;&gt;\\resourceInterfaceSettlement</title>
<path fill="none" stroke="black" stroke-dasharray="1,5" d="M548.982,-242.254C534.362,-245.939 519.243,-252.693 510,-265 410.559,-397.415 548.538,-1623.97 446,-1754 443.871,-1756.7 441.531,-1759.18 439.018,-1761.46"/>
<polygon fill="none" stroke="black" points="436.725,-1758.81 430.993,-1767.72 441.03,-1764.33 436.725,-1758.81"/>
</g>
<!-- \\Ezypay\\Resource\\Customer -->
<g id="node26" class="node"><title>\\Ezypay\\Resource\\Customer</title>
<polygon fill="none" stroke="black" points="626.5,-472 555.5,-472 555.5,-436 626.5,-436 626.5,-472"/>
<text text-anchor="middle" x="591" y="-451.2" font-family="Courier,monospace" font-size="11.00">Customer</text>
</g>
<!-- \\Ezypay\\Resource\\Customer&#45;&gt;\\Ezypay\\Resource\\Resurce -->
<g id="edge29" class="edge"><title>\\Ezypay\\Resource\\Customer&#45;&gt;\\Ezypay\\Resource\\Resurce</title>
<path fill="none" stroke="black" d="M555.475,-443.076C508.615,-428.249 425.006,-401.795 375.009,-385.975"/>
<polygon fill="none" stroke="black" points="375.767,-382.544 365.177,-382.864 373.655,-389.218 375.767,-382.544"/>
</g>
<!-- \\Ezypay\\Resource\\Customer&#45;&gt;\\resourceInterfaceUpdate -->
<g id="edge32" class="edge"><title>\\Ezypay\\Resource\\Customer&#45;&gt;\\resourceInterfaceUpdate</title>
<path fill="none" stroke="black" stroke-dasharray="1,5" d="M555.207,-456.861C538.812,-460.131 520.573,-466.942 510,-481 413.731,-608.996 547.863,-1797.41 446,-1921 441.102,-1926.94 435.145,-1931.71 428.556,-1935.52"/>
<polygon fill="none" stroke="black" points="426.632,-1932.56 419.222,-1940.14 429.737,-1938.84 426.632,-1932.56"/>
</g>
<!-- \\Ezypay\\Resource\\Customer&#45;&gt;\\resourceInterfaceCreate -->
<g id="edge31" class="edge"><title>\\Ezypay\\Resource\\Customer&#45;&gt;\\resourceInterfaceCreate</title>
<path fill="none" stroke="black" stroke-dasharray="1,5" d="M555.189,-456.848C538.789,-460.113 520.551,-466.926 510,-481 406.738,-618.737 555.283,-1895.99 446,-2029 441.112,-2034.95 435.16,-2039.72 428.576,-2043.53"/>
<polygon fill="none" stroke="black" points="426.652,-2040.58 419.247,-2048.16 429.761,-2046.85 426.652,-2040.58"/>
</g>
<!-- \\resourceInterfaceCustomer -->
<g id="node41" class="node"><title>\\resourceInterfaceCustomer</title>
<polygon fill="none" stroke="black" points="425.5,-2128 240.5,-2128 240.5,-2092 425.5,-2092 425.5,-2128"/>
<text text-anchor="middle" x="333" y="-2107.2" font-family="Courier,monospace" font-size="11.00">resourceInterfaceCustomer</text>
</g>
<!-- \\Ezypay\\Resource\\Customer&#45;&gt;\\resourceInterfaceCustomer -->
<g id="edge30" class="edge"><title>\\Ezypay\\Resource\\Customer&#45;&gt;\\resourceInterfaceCustomer</title>
<path fill="none" stroke="black" stroke-dasharray="1,5" d="M555.18,-456.841C538.779,-460.106 520.542,-466.918 510,-481 403.241,-623.608 558.993,-1945.28 446,-2083 442.598,-2087.15 438.681,-2090.72 434.392,-2093.8"/>
<polygon fill="none" stroke="black" points="432.417,-2090.9 425.727,-2099.12 436.08,-2096.87 432.417,-2090.9"/>
</g>
<!-- \\Ezypay\\Resource\\InvoiceItem -->
<g id="node27" class="node"><title>\\Ezypay\\Resource\\InvoiceItem</title>
<polygon fill="none" stroke="black" points="636.5,-526 545.5,-526 545.5,-490 636.5,-490 636.5,-526"/>
<text text-anchor="middle" x="591" y="-505.2" font-family="Courier,monospace" font-size="11.00">InvoiceItem</text>
</g>
<!-- \\Ezypay\\Resource\\InvoiceItem&#45;&gt;\\Ezypay\\Resource\\Resurce -->
<g id="edge33" class="edge"><title>\\Ezypay\\Resource\\InvoiceItem&#45;&gt;\\Ezypay\\Resource\\Resurce</title>
<path fill="none" stroke="black" d="M545.289,-494.885C533.598,-490.924 521.151,-486.222 510,-481 457.922,-456.613 402.007,-420.385 367.51,-396.73"/>
<polygon fill="none" stroke="black" points="369.434,-393.805 359.217,-391.001 365.456,-399.565 369.434,-393.805"/>
</g>
<!-- \\Ezypay\\Resource\\InvoiceItem&#45;&gt;\\resourceInterfaceUpdate -->
<g id="edge36" class="edge"><title>\\Ezypay\\Resource\\InvoiceItem&#45;&gt;\\resourceInterfaceUpdate</title>
<path fill="none" stroke="black" stroke-dasharray="1,5" d="M545.236,-513.286C531.835,-517.154 518.468,-523.761 510,-535 417.228,-658.126 544.154,-1802.12 446,-1921 441.097,-1926.94 435.136,-1931.7 428.545,-1935.51"/>
<polygon fill="none" stroke="black" points="426.62,-1932.55 419.209,-1940.13 429.724,-1938.83 426.62,-1932.55"/>
</g>
<!-- \\Ezypay\\Resource\\InvoiceItem&#45;&gt;\\resourceInterfaceCreate -->
<g id="edge35" class="edge"><title>\\Ezypay\\Resource\\InvoiceItem&#45;&gt;\\resourceInterfaceCreate</title>
<path fill="none" stroke="black" stroke-dasharray="1,5" d="M545.214,-513.27C531.812,-517.137 518.45,-523.747 510,-535 410.235,-667.866 551.573,-1900.7 446,-2029 441.107,-2034.95 435.153,-2039.71 428.567,-2043.52"/>
<polygon fill="none" stroke="black" points="426.642,-2040.57 419.235,-2048.15 429.749,-2046.85 426.642,-2040.57"/>
</g>
<!-- \\resourceInterfaceInvoiceItem -->
<g id="node45" class="node"><title>\\resourceInterfaceInvoiceItem</title>
<polygon fill="none" stroke="black" points="436,-2182 230,-2182 230,-2146 436,-2146 436,-2182"/>
<text text-anchor="middle" x="333" y="-2161.2" font-family="Courier,monospace" font-size="11.00">resourceInterfaceInvoiceItem</text>
</g>
<!-- \\Ezypay\\Resource\\InvoiceItem&#45;&gt;\\resourceInterfaceInvoiceItem -->
<g id="edge34" class="edge"><title>\\Ezypay\\Resource\\InvoiceItem&#45;&gt;\\resourceInterfaceInvoiceItem</title>
<path fill="none" stroke="black" stroke-dasharray="1,5" d="M545.195,-513.256C531.792,-517.122 518.433,-523.735 510,-535 403.241,-677.608 558.993,-1999.28 446,-2137 445.271,-2137.89 444.517,-2138.75 443.742,-2139.59"/>
<polygon fill="none" stroke="black" points="441.239,-2137.13 436.199,-2146.45 445.951,-2142.31 441.239,-2137.13"/>
</g>
<!-- \\Ezypay\\Validation\\Validation -->
<g id="node28" class="node"><title>\\Ezypay\\Validation\\Validation</title>
<polygon fill="none" stroke="black" points="633,-68 549,-68 549,-32 633,-32 633,-68"/>
<text text-anchor="middle" x="591" y="-47.2" font-family="Courier,monospace" font-size="11.00">Validation</text>
</g>
<!-- \\Ezypay\\Validation\\ValidationBase -->
<g id="node29" class="node"><title>\\Ezypay\\Validation\\ValidationBase</title>
<polygon fill="none" stroke="black" points="388.5,-68 277.5,-68 277.5,-32 388.5,-32 388.5,-68"/>
<text text-anchor="start" x="299" y="-53.2" font-family="Courier,monospace" font-size="11.00">«abstract»</text>
<text text-anchor="start" x="285.5" y="-41.2" font-family="Courier,monospace" font-size="11.00">ValidationBase</text>
</g>
<!-- \\Ezypay\\Validation\\Validation&#45;&gt;\\Ezypay\\Validation\\ValidationBase -->
<g id="edge9" class="edge"><title>\\Ezypay\\Validation\\Validation&#45;&gt;\\Ezypay\\Validation\\ValidationBase</title>
<path fill="none" stroke="black" d="M548.869,-50C508.444,-50 446.132,-50 399.001,-50"/>
<polygon fill="none" stroke="black" points="398.887,-46.5001 388.887,-50 398.886,-53.5001 398.887,-46.5001"/>
</g>
<!-- \\Ezypay\\Validation\\NotEmptyString -->
<g id="node30" class="node"><title>\\Ezypay\\Validation\\NotEmptyString</title>
<polygon fill="none" stroke="black" points="646.5,-122 535.5,-122 535.5,-86 646.5,-86 646.5,-122"/>
<text text-anchor="middle" x="591" y="-101.2" font-family="Courier,monospace" font-size="11.00">NotEmptyString</text>
</g>
<!-- \\validatorInterface -->
<g id="node42" class="node"><title>\\validatorInterface</title>
<polygon fill="none" stroke="black" points="402,-1730 264,-1730 264,-1694 402,-1694 402,-1730"/>
<text text-anchor="middle" x="333" y="-1709.2" font-family="Courier,monospace" font-size="11.00">validatorInterface</text>
</g>
<!-- \\Ezypay\\Validation\\NotEmptyString&#45;&gt;\\validatorInterface -->
<g id="edge18" class="edge"><title>\\Ezypay\\Validation\\NotEmptyString&#45;&gt;\\validatorInterface</title>
<path fill="none" stroke="black" stroke-dasharray="1,5" d="M545.005,-122.016C531.416,-129.767 517.994,-140.271 510,-154 425.609,-298.926 540.232,-1523.27 446,-1662 437.412,-1674.64 424.835,-1684.13 411.181,-1691.23"/>
<polygon fill="none" stroke="black" points="409.608,-1688.1 402.084,-1695.56 412.618,-1694.42 409.608,-1688.1"/>
</g>
<!-- \\Ezypay\\Driver\\Curl -->
<g id="node31" class="node"><title>\\Ezypay\\Driver\\Curl</title>
<polygon fill="none" stroke="black" points="618,-660 564,-660 564,-624 618,-624 618,-660"/>
<text text-anchor="middle" x="591" y="-639.2" font-family="Courier,monospace" font-size="11.00">Curl</text>
</g>
<!-- \\driverInterface -->
<g id="node35" class="node"><title>\\driverInterface</title>
<polygon fill="none" stroke="black" points="392,-2290 274,-2290 274,-2254 392,-2254 392,-2290"/>
<text text-anchor="middle" x="333" y="-2269.2" font-family="Courier,monospace" font-size="11.00">driverInterface</text>
</g>
<!-- \\Ezypay\\Driver\\Curl&#45;&gt;\\driverInterface -->
<g id="edge22" class="edge"><title>\\Ezypay\\Driver\\Curl&#45;&gt;\\driverInterface</title>
<path fill="none" stroke="black" stroke-dasharray="1,5" d="M563.881,-650.791C545.356,-658.524 521.773,-671.753 510,-692 423.187,-841.297 555.626,-2111.55 446,-2245 435.068,-2258.31 418.82,-2265.72 402.069,-2269.69"/>
<polygon fill="none" stroke="black" points="401.312,-2266.27 392.184,-2271.65 402.674,-2273.14 401.312,-2266.27"/>
</g>
<!-- \\resourceInterfaceSubscription&#45;&gt;\\resourceInterface -->
<g id="edge37" class="edge"><title>\\resourceInterfaceSubscription&#45;&gt;\\resourceInterface</title>
<path fill="none" stroke="black" d="M248.74,-1983.94C219.273,-1977.55 186.332,-1970.41 157.627,-1964.18"/>
<polygon fill="none" stroke="black" points="158.178,-1960.72 147.663,-1962.02 156.694,-1967.56 158.178,-1960.72"/>
</g>
<!-- \\resourceInterfacePlan&#45;&gt;\\resourceInterface -->
<g id="edge38" class="edge"><title>\\resourceInterfacePlan&#45;&gt;\\resourceInterface</title>
<path fill="none" stroke="black" d="M253.935,-1855.65C242.379,-1858.87 230.751,-1862.64 220,-1867 182.962,-1882.02 144.04,-1905.93 117.189,-1923.88"/>
<polygon fill="none" stroke="black" points="114.883,-1921.22 108.565,-1929.72 118.808,-1927.01 114.883,-1921.22"/>
</g>
<!-- \\resourceInterfaceInvoice&#45;&gt;\\resourceInterface -->
<g id="edge39" class="edge"><title>\\resourceInterfaceInvoice&#45;&gt;\\resourceInterface</title>
<path fill="none" stroke="black" d="M248.74,-1912.06C219.273,-1918.45 186.332,-1925.59 157.627,-1931.82"/>
<polygon fill="none" stroke="black" points="156.694,-1928.44 147.663,-1933.98 158.178,-1935.28 156.694,-1928.44"/>
</g>
<!-- \\resourceInterfaceCustomer&#45;&gt;\\resourceInterface -->
<g id="edge40" class="edge"><title>\\resourceInterfaceCustomer&#45;&gt;\\resourceInterface</title>
<path fill="none" stroke="black" d="M240.255,-2092.31C233.219,-2089.63 226.381,-2086.55 220,-2083 170.645,-2055.57 126.716,-2005.47 102.58,-1974.62"/>
<polygon fill="none" stroke="black" points="105.179,-1972.26 96.3088,-1966.47 99.6296,-1976.53 105.179,-1972.26"/>
</g>
<!-- \\resultInterfaceList&#45;&gt;\\result -->
<g id="edge41" class="edge"><title>\\resultInterfaceList&#45;&gt;\\result</title>
<path fill="none" stroke="black" d="M260.313,-2351.18C214.807,-2354.47 157.747,-2358.6 120.842,-2361.26"/>
<polygon fill="none" stroke="black" points="120.255,-2357.8 110.533,-2362.01 120.76,-2364.78 120.255,-2357.8"/>
</g>
<!-- \\resultInterfaceError&#45;&gt;\\result -->
<g id="edge42" class="edge"><title>\\resultInterfaceError&#45;&gt;\\result</title>
<path fill="none" stroke="black" d="M256.954,-2403.12C211.99,-2393.01 156.75,-2380.59 120.75,-2372.49"/>
<polygon fill="none" stroke="black" points="121.204,-2369 110.68,-2370.23 119.668,-2375.83 121.204,-2369"/>
</g>
<!-- \\resourceInterfacePaymentMethods&#45;&gt;\\resourceInterface -->
<g id="edge43" class="edge"><title>\\resourceInterfacePaymentMethods&#45;&gt;\\resourceInterface</title>
<path fill="none" stroke="black" d="M234.36,-2199.93C229.299,-2197.34 224.469,-2194.38 220,-2191 146.069,-2135.15 106.124,-2027.06 90.6591,-1976"/>
<polygon fill="none" stroke="black" points="93.985,-1974.91 87.8081,-1966.3 87.2688,-1976.88 93.985,-1974.91"/>
</g>
</g>
</svg>
