<?xml version="1.0" encoding="UTF-8" standalone="no"?>
<!DOCTYPE svg PUBLIC "-//W3C//DTD SVG 1.1//EN"
 "http://www.w3.org/Graphics/SVG/1.1/DTD/svg11.dtd">
<!-- Generated by graphviz version 2.36.0 (20140111.2315)
 -->
<!-- Title: G Pages: 1 -->
<svg width="612pt" height="2612pt"
 viewBox="0.00 0.00 612.00 2612.00" xmlns="http://www.w3.org/2000/svg" xmlns:xlink="http://www.w3.org/1999/xlink">
<g id="graph0" class="graph" transform="scale(1 1) rotate(0) translate(4 2608)">
<title>G</title>
<polygon fill="white" stroke="none" points="-4,4 -4,-2608 608,-2608 608,4 -4,4"/>
<g id="clust1" class="cluster"><title>cluster_Global</title>
<path fill="none" stroke="gray" d="M20,-8C20,-8 584,-8 584,-8 590,-8 596,-14 596,-20 596,-20 596,-2584 596,-2584 596,-2590 590,-2596 584,-2596 584,-2596 20,-2596 20,-2596 14,-2596 8,-2590 8,-2584 8,-2584 8,-20 8,-20 8,-14 14,-8 20,-8"/>
<text text-anchor="middle" x="302" y="-2583.2" font-family="Times,serif" font-size="11.00" fill="gray">Global</text>
</g>
<g id="clust2" class="cluster"><title>cluster_\Ezypay</title>
<path fill="none" stroke="gray" d="M28,-16C28,-16 576,-16 576,-16 582,-16 588,-22 588,-28 588,-28 588,-2556 588,-2556 588,-2562 582,-2568 576,-2568 576,-2568 28,-2568 28,-2568 22,-2568 16,-2562 16,-2556 16,-2556 16,-28 16,-28 16,-22 22,-16 28,-16"/>
<text text-anchor="middle" x="302" y="-2555.2" font-family="Times,serif" font-size="11.00" fill="gray">Ezypay</text>
</g>
<g id="clust3" class="cluster"><title>cluster_\Ezypay\Object</title>
<path fill="none" stroke="gray" d="M430,-1982C430,-1982 568,-1982 568,-1982 574,-1982 580,-1988 580,-1994 580,-1994 580,-2528 580,-2528 580,-2534 574,-2540 568,-2540 568,-2540 430,-2540 430,-2540 424,-2540 418,-2534 418,-2528 418,-2528 418,-1994 418,-1994 418,-1988 424,-1982 430,-1982"/>
<text text-anchor="middle" x="499" y="-2527.2" font-family="Times,serif" font-size="11.00" fill="gray">Object</text>
</g>
<g id="clust4" class="cluster"><title>cluster_\Ezypay\Validation</title>
<path fill="none" stroke="gray" d="M216,-1822C216,-1822 559,-1822 559,-1822 565,-1822 571,-1828 571,-1834 571,-1834 571,-1962 571,-1962 571,-1968 565,-1974 559,-1974 559,-1974 216,-1974 216,-1974 210,-1974 204,-1968 204,-1962 204,-1962 204,-1834 204,-1834 204,-1828 210,-1822 216,-1822"/>
<text text-anchor="middle" x="387.5" y="-1961.2" font-family="Times,serif" font-size="11.00" fill="gray">Validation</text>
</g>
<g id="clust5" class="cluster"><title>cluster_\Ezypay\Validation\Validator</title>
<path fill="none" stroke="gray" d="M447,-1830C447,-1830 551,-1830 551,-1830 557,-1830 563,-1836 563,-1842 563,-1842 563,-1890 563,-1890 563,-1896 557,-1902 551,-1902 551,-1902 447,-1902 447,-1902 441,-1902 435,-1896 435,-1890 435,-1890 435,-1842 435,-1842 435,-1836 441,-1830 447,-1830"/>
<text text-anchor="middle" x="499" y="-1889.2" font-family="Times,serif" font-size="11.00" fill="gray">Validator</text>
</g>
<g id="clust6" class="cluster"><title>cluster_\Ezypay\Driver</title>
<path fill="none" stroke="gray" d="M476,-1014C476,-1014 522,-1014 522,-1014 528,-1014 534,-1020 534,-1026 534,-1026 534,-1074 534,-1074 534,-1080 528,-1086 522,-1086 522,-1086 476,-1086 476,-1086 470,-1086 464,-1080 464,-1074 464,-1074 464,-1026 464,-1026 464,-1020 470,-1014 476,-1014"/>
<text text-anchor="middle" x="499" y="-1073.2" font-family="Times,serif" font-size="11.00" fill="gray">Driver</text>
</g>
<g id="clust7" class="cluster"><title>cluster_\Ezypay\Result</title>
<path fill="none" stroke="gray" d="M193,-1256C193,-1256 564,-1256 564,-1256 570,-1256 576,-1262 576,-1268 576,-1268 576,-1802 576,-1802 576,-1808 570,-1814 564,-1814 564,-1814 193,-1814 193,-1814 187,-1814 181,-1808 181,-1802 181,-1802 181,-1268 181,-1268 181,-1262 187,-1256 193,-1256"/>
<text text-anchor="middle" x="378.5" y="-1801.2" font-family="Times,serif" font-size="11.00" fill="gray">Result</text>
</g>
<g id="clust8" class="cluster"><title>cluster_\Ezypay\Resource</title>
<path fill="none" stroke="gray" d="M240,-70C240,-70 547,-70 547,-70 553,-70 559,-76 559,-82 559,-82 559,-508 559,-508 559,-514 553,-520 547,-520 547,-520 240,-520 240,-520 234,-520 228,-514 228,-508 228,-508 228,-82 228,-82 228,-76 234,-70 240,-70"/>
<text text-anchor="middle" x="393.5" y="-507.2" font-family="Times,serif" font-size="11.00" fill="gray">Resource</text>
</g>
<g id="clust9" class="cluster"><title>cluster_\Ezypay\Contract</title>
<path fill="none" stroke="gray" d="M36,-528C36,-528 350,-528 350,-528 356,-528 362,-534 362,-540 362,-540 362,-1236 362,-1236 362,-1242 356,-1248 350,-1248 350,-1248 36,-1248 36,-1248 30,-1248 24,-1242 24,-1236 24,-1236 24,-540 24,-540 24,-534 30,-528 36,-528"/>
<text text-anchor="middle" x="193" y="-1235.2" font-family="Times,serif" font-size="11.00" fill="gray">Contract</text>
</g>
<!-- \\Ezypay\\Object\\Invoice -->
<g id="node1" class="node"><title>\\Ezypay\\Object\\Invoice</title>
<polygon fill="none" stroke="black" points="531,-2512 467,-2512 467,-2476 531,-2476 531,-2512"/>
<text text-anchor="middle" x="499" y="-2491.2" font-family="Courier,monospace" font-size="11.00">Invoice</text>
</g>
<!-- \\Ezypay\\Object\\Subscription -->
<g id="node2" class="node"><title>\\Ezypay\\Object\\Subscription</title>
<polygon fill="none" stroke="black" points="548,-2458 450,-2458 450,-2422 548,-2422 548,-2458"/>
<text text-anchor="middle" x="499" y="-2437.2" font-family="Courier,monospace" font-size="11.00">Subscription</text>
</g>
<!-- \\Ezypay\\Object\\PaymentMethod -->
<g id="node3" class="node"><title>\\Ezypay\\Object\\PaymentMethod</title>
<polygon fill="none" stroke="black" points="551,-2404 447,-2404 447,-2368 551,-2368 551,-2404"/>
<text text-anchor="middle" x="499" y="-2383.2" font-family="Courier,monospace" font-size="11.00">PaymentMethod</text>
</g>
<!-- \\Ezypay\\Object\\Payment -->
<g id="node4" class="node"><title>\\Ezypay\\Object\\Payment</title>
<polygon fill="none" stroke="black" points="531,-2350 467,-2350 467,-2314 531,-2314 531,-2350"/>
<text text-anchor="middle" x="499" y="-2329.2" font-family="Courier,monospace" font-size="11.00">Payment</text>
</g>
<!-- \\Ezypay\\Object\\Plan -->
<g id="node5" class="node"><title>\\Ezypay\\Object\\Plan</title>
<polygon fill="none" stroke="black" points="526,-2296 472,-2296 472,-2260 526,-2260 526,-2296"/>
<text text-anchor="middle" x="499" y="-2275.2" font-family="Courier,monospace" font-size="11.00">Plan</text>
</g>
<!-- \\Ezypay\\Object\\ObjectFactory -->
<g id="node6" class="node"><title>\\Ezypay\\Object\\ObjectFactory</title>
<polygon fill="none" stroke="black" points="551,-2242 447,-2242 447,-2206 551,-2206 551,-2242"/>
<text text-anchor="middle" x="499" y="-2221.2" font-family="Courier,monospace" font-size="11.00">ObjectFactory</text>
</g>
<!-- \\Ezypay\\Object\\Customer -->
<g id="node7" class="node"><title>\\Ezypay\\Object\\Customer</title>
<polygon fill="none" stroke="black" points="534.5,-2188 463.5,-2188 463.5,-2152 534.5,-2152 534.5,-2188"/>
<text text-anchor="middle" x="499" y="-2167.2" font-family="Courier,monospace" font-size="11.00">Customer</text>
</g>
<!-- \\Ezypay\\Object\\Settlement -->
<g id="node8" class="node"><title>\\Ezypay\\Object\\Settlement</title>
<polygon fill="none" stroke="black" points="541,-2134 457,-2134 457,-2098 541,-2098 541,-2134"/>
<text text-anchor="middle" x="499" y="-2113.2" font-family="Courier,monospace" font-size="11.00">Settlement</text>
</g>
<!-- \\Ezypay\\Object\\InvoiceItem -->
<g id="node9" class="node"><title>\\Ezypay\\Object\\InvoiceItem</title>
<polygon fill="none" stroke="black" points="544.5,-2080 453.5,-2080 453.5,-2044 544.5,-2044 544.5,-2080"/>
<text text-anchor="middle" x="499" y="-2059.2" font-family="Courier,monospace" font-size="11.00">InvoiceItem</text>
</g>
<!-- \\Ezypay\\Object\\SubscriptionPreview -->
<g id="node10" class="node"><title>\\Ezypay\\Object\\SubscriptionPreview</title>
<polygon fill="none" stroke="black" points="571.5,-2026 426.5,-2026 426.5,-1990 571.5,-1990 571.5,-2026"/>
<text text-anchor="middle" x="499" y="-2005.2" font-family="Courier,monospace" font-size="11.00">SubscriptionPreview</text>
</g>
<!-- \\Ezypay\\Validation\\Validator\\NotEmptyString -->
<g id="node11" class="node"><title>\\Ezypay\\Validation\\Validator\\NotEmptyString</title>
<polygon fill="none" stroke="black" points="554.5,-1874 443.5,-1874 443.5,-1838 554.5,-1838 554.5,-1874"/>
<text text-anchor="middle" x="499" y="-1853.2" font-family="Courier,monospace" font-size="11.00">NotEmptyString</text>
</g>
<!-- \\Ezypay\\Contract\\IValidator -->
<g id="node47" class="node"><title>\\Ezypay\\Contract\\IValidator</title>
<polygon fill="none" stroke="black" points="310,-1220 226,-1220 226,-1184 310,-1184 310,-1220"/>
<text text-anchor="middle" x="268" y="-1199.2" font-family="Courier,monospace" font-size="11.00">IValidator</text>
</g>
<!-- \\Ezypay\\Validation\\Validator\\NotEmptyString&#45;&gt;\\Ezypay\\Contract\\IValidator -->
<g id="edge10" class="edge"><title>\\Ezypay\\Validation\\Validator\\NotEmptyString&#45;&gt;\\Ezypay\\Contract\\IValidator</title>
<path fill="none" stroke="black" stroke-dasharray="1,5" d="M443.296,-1839.36C433.484,-1834.02 424.369,-1827.06 418,-1818 272.571,-1611.24 502.231,-1462.32 362,-1252 351.969,-1236.96 335.861,-1226.08 319.848,-1218.4"/>
<polygon fill="none" stroke="black" points="321.037,-1215.1 310.477,-1214.23 318.195,-1221.49 321.037,-1215.1"/>
</g>
<!-- \\Ezypay\\Validation\\Validation -->
<g id="node12" class="node"><title>\\Ezypay\\Validation\\Validation</title>
<polygon fill="none" stroke="black" points="541,-1946 457,-1946 457,-1910 541,-1910 541,-1946"/>
<text text-anchor="middle" x="499" y="-1925.2" font-family="Courier,monospace" font-size="11.00">Validation</text>
</g>
<!-- \\Ezypay\\Validation\\ValidationBase -->
<g id="node13" class="node"><title>\\Ezypay\\Validation\\ValidationBase</title>
<polygon fill="none" stroke="black" points="323.5,-1946 212.5,-1946 212.5,-1910 323.5,-1910 323.5,-1946"/>
<text text-anchor="start" x="234" y="-1931.2" font-family="Courier,monospace" font-size="11.00">«abstract»</text>
<text text-anchor="start" x="220.5" y="-1919.2" font-family="Courier,monospace" font-size="11.00">ValidationBase</text>
</g>
<!-- \\Ezypay\\Validation\\Validation&#45;&gt;\\Ezypay\\Validation\\ValidationBase -->
<g id="edge1" class="edge"><title>\\Ezypay\\Validation\\Validation&#45;&gt;\\Ezypay\\Validation\\ValidationBase</title>
<path fill="none" stroke="black" d="M456.795,-1928C422.56,-1928 373.245,-1928 333.74,-1928"/>
<polygon fill="none" stroke="black" points="333.663,-1924.5 323.663,-1928 333.663,-1931.5 333.663,-1924.5"/>
</g>
<!-- \\Ezypay\\Driver\\Curl -->
<g id="node14" class="node"><title>\\Ezypay\\Driver\\Curl</title>
<polygon fill="none" stroke="black" points="526,-1058 472,-1058 472,-1022 526,-1022 526,-1058"/>
<text text-anchor="middle" x="499" y="-1037.2" font-family="Courier,monospace" font-size="11.00">Curl</text>
</g>
<!-- \\Ezypay\\Contract\\IDriver -->
<g id="node44" class="node"><title>\\Ezypay\\Contract\\IDriver</title>
<polygon fill="none" stroke="black" points="300,-1058 236,-1058 236,-1022 300,-1022 300,-1058"/>
<text text-anchor="middle" x="268" y="-1037.2" font-family="Courier,monospace" font-size="11.00">IDriver</text>
</g>
<!-- \\Ezypay\\Driver\\Curl&#45;&gt;\\Ezypay\\Contract\\IDriver -->
<g id="edge2" class="edge"><title>\\Ezypay\\Driver\\Curl&#45;&gt;\\Ezypay\\Contract\\IDriver</title>
<path fill="none" stroke="black" stroke-dasharray="1,5" d="M471.731,-1040C432.193,-1040 357.039,-1040 310.175,-1040"/>
<polygon fill="none" stroke="black" points="310.055,-1036.5 300.055,-1040 310.055,-1043.5 310.055,-1036.5"/>
</g>
<!-- \\Ezypay\\Result\\ResultFactoryJson -->
<g id="node15" class="node"><title>\\Ezypay\\Result\\ResultFactoryJson</title>
<polygon fill="none" stroke="black" points="564.5,-1678 433.5,-1678 433.5,-1642 564.5,-1642 564.5,-1678"/>
<text text-anchor="middle" x="499" y="-1657.2" font-family="Courier,monospace" font-size="11.00">ResultFactoryJson</text>
</g>
<!-- \\Ezypay\\Result\\ResultAbstractFactory -->
<g id="node18" class="node"><title>\\Ezypay\\Result\\ResultAbstractFactory</title>
<polygon fill="none" stroke="black" points="347,-1624 189,-1624 189,-1588 347,-1588 347,-1624"/>
<text text-anchor="start" x="234" y="-1609.2" font-family="Courier,monospace" font-size="11.00">«abstract»</text>
<text text-anchor="start" x="197" y="-1597.2" font-family="Courier,monospace" font-size="11.00">ResultAbstractFactory</text>
</g>
<!-- \\Ezypay\\Result\\ResultFactoryJson&#45;&gt;\\Ezypay\\Result\\ResultAbstractFactory -->
<g id="edge3" class="edge"><title>\\Ezypay\\Result\\ResultFactoryJson&#45;&gt;\\Ezypay\\Result\\ResultAbstractFactory</title>
<path fill="none" stroke="black" d="M433.296,-1644.74C409.137,-1639.05 381.304,-1632.48 355.494,-1626.4"/>
<polygon fill="none" stroke="black" points="356.249,-1622.98 345.713,-1624.09 354.642,-1629.79 356.249,-1622.98"/>
</g>
<!-- \\Ezypay\\Result\\resultSingleArray -->
<g id="node16" class="node"><title>\\Ezypay\\Result\\resultSingleArray</title>
<polygon fill="none" stroke="black" points="564.5,-1732 433.5,-1732 433.5,-1696 564.5,-1696 564.5,-1732"/>
<text text-anchor="middle" x="499" y="-1711.2" font-family="Courier,monospace" font-size="11.00">resultSingleArray</text>
</g>
<!-- \\Ezypay\\Contract\\IResult -->
<g id="node48" class="node"><title>\\Ezypay\\Contract\\IResult</title>
<polygon fill="none" stroke="black" points="103,-1193 39,-1193 39,-1157 103,-1157 103,-1193"/>
<text text-anchor="middle" x="71" y="-1172.2" font-family="Courier,monospace" font-size="11.00">IResult</text>
</g>
<!-- \\Ezypay\\Result\\resultSingleArray&#45;&gt;\\Ezypay\\Contract\\IResult -->
<g id="edge8" class="edge"><title>\\Ezypay\\Result\\resultSingleArray&#45;&gt;\\Ezypay\\Contract\\IResult</title>
<path fill="none" stroke="black" stroke-dasharray="1,5" d="M433.238,-1731.16C374.941,-1744.93 294.614,-1759.21 269,-1741"/>
<path fill="none" stroke="black" stroke-dasharray="1,5" d="M267,-1741C84.4882,-1611.27 71.0632,-1299.02 71.3898,-1203.34"/>
<polygon fill="none" stroke="black" points="74.8902,-1203.3 71.48,-1193.27 67.8905,-1203.24 74.8902,-1203.3"/>
</g>
<!-- \\Ezypay\\Result\\resultSingle -->
<g id="node17" class="node"><title>\\Ezypay\\Result\\resultSingle</title>
<polygon fill="none" stroke="black" points="548,-1786 450,-1786 450,-1750 548,-1750 548,-1786"/>
<text text-anchor="middle" x="499" y="-1765.2" font-family="Courier,monospace" font-size="11.00">resultSingle</text>
</g>
<!-- \\Ezypay\\Result\\resultSingle&#45;&gt;\\Ezypay\\Contract\\IResult -->
<g id="edge9" class="edge"><title>\\Ezypay\\Result\\resultSingle&#45;&gt;\\Ezypay\\Contract\\IResult</title>
<path fill="none" stroke="black" stroke-dasharray="1,5" d="M449.89,-1774.91C400.002,-1779.41 322.023,-1778.69 269,-1741"/>
</g>
<!-- \\Ezypay\\Result\\ResultList -->
<g id="node19" class="node"><title>\\Ezypay\\Result\\ResultList</title>
<polygon fill="none" stroke="black" points="541,-1354 457,-1354 457,-1318 541,-1318 541,-1354"/>
<text text-anchor="middle" x="499" y="-1333.2" font-family="Courier,monospace" font-size="11.00">ResultList</text>
</g>
<!-- \\Ezypay\\Contract\\IResultList -->
<g id="node49" class="node"><title>\\Ezypay\\Contract\\IResultList</title>
<polygon fill="none" stroke="black" points="313.5,-1112 222.5,-1112 222.5,-1076 313.5,-1076 313.5,-1112"/>
<text text-anchor="middle" x="268" y="-1091.2" font-family="Courier,monospace" font-size="11.00">IResultList</text>
</g>
<!-- \\Ezypay\\Result\\ResultList&#45;&gt;\\Ezypay\\Contract\\IResultList -->
<g id="edge19" class="edge"><title>\\Ezypay\\Result\\ResultList&#45;&gt;\\Ezypay\\Contract\\IResultList</title>
<path fill="none" stroke="black" stroke-dasharray="1,5" d="M456.836,-1330.01C442.899,-1326.11 428.279,-1319.66 418,-1309 357.471,-1246.25 423.862,-1182.43 362,-1121 351.729,-1110.8 337.846,-1104.41 323.944,-1100.41"/>
<polygon fill="none" stroke="black" points="324.417,-1096.92 313.868,-1097.91 322.729,-1103.72 324.417,-1096.92"/>
</g>
<!-- \\Ezypay\\Result\\ResultProducer -->
<g id="node20" class="node"><title>\\Ezypay\\Result\\ResultProducer</title>
<polygon fill="none" stroke="black" points="554.5,-1570 443.5,-1570 443.5,-1534 554.5,-1534 554.5,-1570"/>
<text text-anchor="middle" x="499" y="-1549.2" font-family="Courier,monospace" font-size="11.00">ResultProducer</text>
</g>
<!-- \\Ezypay\\Result\\ResultFactoryArray -->
<g id="node21" class="node"><title>\\Ezypay\\Result\\ResultFactoryArray</title>
<polygon fill="none" stroke="black" points="568,-1624 430,-1624 430,-1588 568,-1588 568,-1624"/>
<text text-anchor="middle" x="499" y="-1603.2" font-family="Courier,monospace" font-size="11.00">ResultFactoryArray</text>
</g>
<!-- \\Ezypay\\Result\\ResultFactoryArray&#45;&gt;\\Ezypay\\Result\\ResultAbstractFactory -->
<g id="edge24" class="edge"><title>\\Ezypay\\Result\\ResultFactoryArray&#45;&gt;\\Ezypay\\Result\\ResultAbstractFactory</title>
<path fill="none" stroke="black" d="M429.912,-1606C407.186,-1606 381.524,-1606 357.478,-1606"/>
<polygon fill="none" stroke="black" points="357.285,-1602.5 347.285,-1606 357.285,-1609.5 357.285,-1602.5"/>
</g>
<!-- \\Ezypay\\Result\\ResultFactory -->
<g id="node22" class="node"><title>\\Ezypay\\Result\\ResultFactory</title>
<polygon fill="none" stroke="black" points="551,-1516 447,-1516 447,-1480 551,-1480 551,-1516"/>
<text text-anchor="middle" x="499" y="-1495.2" font-family="Courier,monospace" font-size="11.00">ResultFactory</text>
</g>
<!-- \\Ezypay\\Result\\ResultFactory&#45;&gt;\\Ezypay\\Result\\ResultAbstractFactory -->
<g id="edge28" class="edge"><title>\\Ezypay\\Result\\ResultFactory&#45;&gt;\\Ezypay\\Result\\ResultAbstractFactory</title>
<path fill="none" stroke="black" d="M446.714,-1513.84C437.061,-1517.24 427.135,-1521.01 418,-1525 379.119,-1541.98 336.802,-1565.51 307.235,-1582.83"/>
<polygon fill="none" stroke="black" points="305.319,-1579.9 298.486,-1587.99 308.877,-1585.93 305.319,-1579.9"/>
</g>
<!-- \\Ezypay\\Result\\ResultJson -->
<g id="node23" class="node"><title>\\Ezypay\\Result\\ResultJson</title>
<polygon fill="none" stroke="black" points="541,-1462 457,-1462 457,-1426 541,-1426 541,-1462"/>
<text text-anchor="middle" x="499" y="-1441.2" font-family="Courier,monospace" font-size="11.00">ResultJson</text>
</g>
<!-- \\Ezypay\\Result\\ResultJson&#45;&gt;\\Ezypay\\Contract\\IResult -->
<g id="edge29" class="edge"><title>\\Ezypay\\Result\\ResultJson&#45;&gt;\\Ezypay\\Contract\\IResult</title>
<path fill="none" stroke="black" stroke-dasharray="1,5" d="M456.801,-1432.58C444.052,-1428.39 430.167,-1423.15 418,-1417 291.413,-1353.03 158.529,-1247.52 101.176,-1199.8"/>
<polygon fill="none" stroke="black" points="103.189,-1196.92 93.2723,-1193.19 98.6987,-1202.29 103.189,-1196.92"/>
</g>
<!-- \\Ezypay\\Result\\ResultListArray -->
<g id="node24" class="node"><title>\\Ezypay\\Result\\ResultListArray</title>
<polygon fill="none" stroke="black" points="558,-1300 440,-1300 440,-1264 558,-1264 558,-1300"/>
<text text-anchor="middle" x="499" y="-1279.2" font-family="Courier,monospace" font-size="11.00">ResultListArray</text>
</g>
<!-- \\Ezypay\\Result\\ResultListArray&#45;&gt;\\Ezypay\\Contract\\IResultList -->
<g id="edge30" class="edge"><title>\\Ezypay\\Result\\ResultListArray&#45;&gt;\\Ezypay\\Contract\\IResultList</title>
<path fill="none" stroke="black" stroke-dasharray="1,5" d="M487.641,-1263.76C467.714,-1230.32 420.764,-1159.16 362,-1121 350.539,-1113.56 336.981,-1108.12 323.812,-1104.16"/>
<polygon fill="none" stroke="black" points="324.43,-1100.7 313.859,-1101.42 322.569,-1107.45 324.43,-1100.7"/>
</g>
<!-- \\Ezypay\\Result\\ResultError -->
<g id="node25" class="node"><title>\\Ezypay\\Result\\ResultError</title>
<polygon fill="none" stroke="black" points="544.5,-1408 453.5,-1408 453.5,-1372 544.5,-1372 544.5,-1408"/>
<text text-anchor="middle" x="499" y="-1387.2" font-family="Courier,monospace" font-size="11.00">ResultError</text>
</g>
<!-- \\Ezypay\\Contract\\IResultError -->
<g id="node35" class="node"><title>\\Ezypay\\Contract\\IResultError</title>
<polygon fill="none" stroke="black" points="317,-1166 219,-1166 219,-1130 317,-1130 317,-1166"/>
<text text-anchor="middle" x="268" y="-1145.2" font-family="Courier,monospace" font-size="11.00">IResultError</text>
</g>
<!-- \\Ezypay\\Result\\ResultError&#45;&gt;\\Ezypay\\Contract\\IResultError -->
<g id="edge39" class="edge"><title>\\Ezypay\\Result\\ResultError&#45;&gt;\\Ezypay\\Contract\\IResultError</title>
<path fill="none" stroke="black" stroke-dasharray="1,5" d="M453.097,-1382.9C440.328,-1378.92 427.363,-1372.71 418,-1363 357.471,-1300.25 423.862,-1236.43 362,-1175 352.494,-1165.56 339.894,-1159.38 327.049,-1155.35"/>
<polygon fill="none" stroke="black" points="327.794,-1151.92 317.225,-1152.66 325.948,-1158.67 327.794,-1151.92"/>
</g>
<!-- \\Ezypay\\Resource\\InvoiceItem -->
<g id="node26" class="node"><title>\\Ezypay\\Resource\\InvoiceItem</title>
<polygon fill="none" stroke="black" points="544.5,-276 453.5,-276 453.5,-240 544.5,-240 544.5,-276"/>
<text text-anchor="middle" x="499" y="-255.2" font-family="Courier,monospace" font-size="11.00">InvoiceItem</text>
</g>
<!-- \\Ezypay\\Resource\\Resurce -->
<g id="node27" class="node"><title>\\Ezypay\\Resource\\Resurce</title>
<polygon fill="none" stroke="black" points="300,-303 236,-303 236,-267 300,-267 300,-303"/>
<text text-anchor="middle" x="268" y="-282.2" font-family="Courier,monospace" font-size="11.00">Resurce</text>
</g>
<!-- \\Ezypay\\Resource\\InvoiceItem&#45;&gt;\\Ezypay\\Resource\\Resurce -->
<g id="edge4" class="edge"><title>\\Ezypay\\Resource\\InvoiceItem&#45;&gt;\\Ezypay\\Resource\\Resurce</title>
<path fill="none" stroke="black" d="M453.303,-263.27C411.753,-268.169 350.373,-275.406 310.041,-280.161"/>
<polygon fill="none" stroke="black" points="309.535,-276.696 300.013,-281.343 310.354,-283.648 309.535,-276.696"/>
</g>
<!-- \\Ezypay\\Contract\\IResourceInvoiceItem -->
<g id="node38" class="node"><title>\\Ezypay\\Contract\\IResourceInvoiceItem</title>
<polygon fill="none" stroke="black" points="344,-680 192,-680 192,-644 344,-644 344,-680"/>
<text text-anchor="middle" x="268" y="-659.2" font-family="Courier,monospace" font-size="11.00">IResourceInvoiceItem</text>
</g>
<!-- \\Ezypay\\Resource\\InvoiceItem&#45;&gt;\\Ezypay\\Contract\\IResourceInvoiceItem -->
<g id="edge5" class="edge"><title>\\Ezypay\\Resource\\InvoiceItem&#45;&gt;\\Ezypay\\Contract\\IResourceInvoiceItem</title>
<path fill="none" stroke="black" stroke-dasharray="1,5" d="M453.126,-264.113C440.047,-268.044 426.898,-274.479 418,-285 316.276,-405.288 466.283,-516.924 362,-635 359.261,-638.101 356.189,-640.856 352.874,-643.301"/>
<polygon fill="none" stroke="black" points="350.785,-640.48 344.183,-648.766 354.511,-646.406 350.785,-640.48"/>
</g>
<!-- \\Ezypay\\Contract\\IResourceUpdate -->
<g id="node42" class="node"><title>\\Ezypay\\Contract\\IResourceUpdate</title>
<polygon fill="none" stroke="black" points="327,-896 209,-896 209,-860 327,-860 327,-896"/>
<text text-anchor="middle" x="268" y="-875.2" font-family="Courier,monospace" font-size="11.00">IResourceUpdate</text>
</g>
<!-- \\Ezypay\\Resource\\InvoiceItem&#45;&gt;\\Ezypay\\Contract\\IResourceUpdate -->
<g id="edge7" class="edge"><title>\\Ezypay\\Resource\\InvoiceItem&#45;&gt;\\Ezypay\\Contract\\IResourceUpdate</title>
<path fill="none" stroke="black" stroke-dasharray="1,5" d="M453.16,-263.673C439.921,-267.574 426.669,-274.102 418,-285 260.637,-482.829 523.574,-656.595 362,-851 355.322,-859.035 346.407,-864.76 336.733,-868.823"/>
<polygon fill="none" stroke="black" points="335.497,-865.548 327.275,-872.23 337.869,-872.134 335.497,-865.548"/>
</g>
<!-- \\Ezypay\\Contract\\IResourceCreate -->
<g id="node43" class="node"><title>\\Ezypay\\Contract\\IResourceCreate</title>
<polygon fill="none" stroke="black" points="327,-788 209,-788 209,-752 327,-752 327,-788"/>
<text text-anchor="middle" x="268" y="-767.2" font-family="Courier,monospace" font-size="11.00">IResourceCreate</text>
</g>
<!-- \\Ezypay\\Resource\\InvoiceItem&#45;&gt;\\Ezypay\\Contract\\IResourceCreate -->
<g id="edge6" class="edge"><title>\\Ezypay\\Resource\\InvoiceItem&#45;&gt;\\Ezypay\\Contract\\IResourceCreate</title>
<path fill="none" stroke="black" stroke-dasharray="1,5" d="M453.309,-263.793C440.078,-267.7 426.794,-274.202 418,-285 288.498,-444.008 494.886,-586.809 362,-743 355.23,-750.957 346.267,-756.642 336.575,-760.689"/>
<polygon fill="none" stroke="black" points="335.335,-757.415 327.106,-764.088 337.701,-764.004 335.335,-757.415"/>
</g>
<!-- \\Ezypay\\Resource\\Settlement -->
<g id="node28" class="node"><title>\\Ezypay\\Resource\\Settlement</title>
<polygon fill="none" stroke="black" points="541,-168 457,-168 457,-132 541,-132 541,-168"/>
<text text-anchor="middle" x="499" y="-147.2" font-family="Courier,monospace" font-size="11.00">Settlement</text>
</g>
<!-- \\Ezypay\\Resource\\Settlement&#45;&gt;\\Ezypay\\Resource\\Resurce -->
<g id="edge11" class="edge"><title>\\Ezypay\\Resource\\Settlement&#45;&gt;\\Ezypay\\Resource\\Resurce</title>
<path fill="none" stroke="black" d="M456.737,-161.296C443.985,-165.476 430.115,-170.749 418,-177 373.036,-200.2 326.682,-236.027 297.866,-259.98"/>
<polygon fill="none" stroke="black" points="295.269,-257.59 289.863,-266.702 299.771,-262.95 295.269,-257.59"/>
</g>
<!-- \\Ezypay\\Contract\\IResourceSettlement -->
<g id="node46" class="node"><title>\\Ezypay\\Contract\\IResourceSettlement</title>
<polygon fill="none" stroke="black" points="340.5,-572 195.5,-572 195.5,-536 340.5,-536 340.5,-572"/>
<text text-anchor="middle" x="268" y="-551.2" font-family="Courier,monospace" font-size="11.00">IResourceSettlement</text>
</g>
<!-- \\Ezypay\\Resource\\Settlement&#45;&gt;\\Ezypay\\Contract\\IResourceSettlement -->
<g id="edge12" class="edge"><title>\\Ezypay\\Resource\\Settlement&#45;&gt;\\Ezypay\\Contract\\IResourceSettlement</title>
<path fill="none" stroke="black" stroke-dasharray="1,5" d="M456.886,-155.058C442.613,-158.857 427.757,-165.478 418,-177 317.045,-296.215 463.754,-405.467 362,-524 358.34,-528.264 354.069,-531.927 349.408,-535.073"/>
<polygon fill="none" stroke="black" points="347.511,-532.127 340.644,-540.195 351.044,-538.171 347.511,-532.127"/>
</g>
<!-- \\Ezypay\\Resource\\Plan -->
<g id="node29" class="node"><title>\\Ezypay\\Resource\\Plan</title>
<polygon fill="none" stroke="black" points="526,-492 472,-492 472,-456 526,-456 526,-492"/>
<text text-anchor="middle" x="499" y="-471.2" font-family="Courier,monospace" font-size="11.00">Plan</text>
</g>
<!-- \\Ezypay\\Resource\\Plan&#45;&gt;\\Ezypay\\Resource\\Resurce -->
<g id="edge13" class="edge"><title>\\Ezypay\\Resource\\Plan&#45;&gt;\\Ezypay\\Resource\\Resurce</title>
<path fill="none" stroke="black" d="M471.663,-468.649C455.301,-464.497 434.347,-457.624 418,-447 361.438,-410.238 312.029,-347.138 286.806,-311.509"/>
<polygon fill="none" stroke="black" points="289.516,-309.276 280.925,-303.075 283.774,-313.28 289.516,-309.276"/>
</g>
<!-- \\Ezypay\\Contract\\IResourcePlan -->
<g id="node41" class="node"><title>\\Ezypay\\Contract\\IResourcePlan</title>
<polygon fill="none" stroke="black" points="320,-1004 216,-1004 216,-968 320,-968 320,-1004"/>
<text text-anchor="middle" x="268" y="-983.2" font-family="Courier,monospace" font-size="11.00">IResourcePlan</text>
</g>
<!-- \\Ezypay\\Resource\\Plan&#45;&gt;\\Ezypay\\Contract\\IResourcePlan -->
<g id="edge14" class="edge"><title>\\Ezypay\\Resource\\Plan&#45;&gt;\\Ezypay\\Contract\\IResourcePlan</title>
<path fill="none" stroke="black" stroke-dasharray="1,5" d="M498.734,-492.451C500.51,-563.56 497.106,-822.65 362,-959 353.223,-967.858 341.725,-973.85 329.819,-977.892"/>
<polygon fill="none" stroke="black" points="328.822,-974.537 320.228,-980.734 330.81,-981.249 328.822,-974.537"/>
</g>
<!-- \\Ezypay\\Resource\\Plan&#45;&gt;\\Ezypay\\Contract\\IResourceUpdate -->
<g id="edge16" class="edge"><title>\\Ezypay\\Resource\\Plan&#45;&gt;\\Ezypay\\Contract\\IResourceUpdate</title>
<path fill="none" stroke="black" stroke-dasharray="1,5" d="M497.047,-492.036C492.87,-552.3 471.094,-748.639 362,-851 354.736,-857.816 345.852,-862.923 336.488,-866.748"/>
<polygon fill="none" stroke="black" points="335.23,-863.481 327.006,-870.16 337.601,-870.067 335.23,-863.481"/>
</g>
<!-- \\Ezypay\\Resource\\Plan&#45;&gt;\\Ezypay\\Contract\\IResourceCreate -->
<g id="edge15" class="edge"><title>\\Ezypay\\Resource\\Plan&#45;&gt;\\Ezypay\\Contract\\IResourceCreate</title>
<path fill="none" stroke="black" stroke-dasharray="1,5" d="M494.122,-492.19C482.833,-540.642 445.364,-673.828 362,-743 354.606,-749.135 345.878,-753.877 336.781,-757.541"/>
<polygon fill="none" stroke="black" points="335.434,-754.306 327.208,-760.983 337.803,-760.894 335.434,-754.306"/>
</g>
<!-- \\Ezypay\\Resource\\Payment -->
<g id="node30" class="node"><title>\\Ezypay\\Resource\\Payment</title>
<polygon fill="none" stroke="black" points="531,-114 467,-114 467,-78 531,-78 531,-114"/>
<text text-anchor="middle" x="499" y="-93.2" font-family="Courier,monospace" font-size="11.00">Payment</text>
</g>
<!-- \\Ezypay\\Resource\\Payment&#45;&gt;\\Ezypay\\Resource\\Resurce -->
<g id="edge17" class="edge"><title>\\Ezypay\\Resource\\Payment&#45;&gt;\\Ezypay\\Resource\\Resurce</title>
<path fill="none" stroke="black" d="M466.742,-102.648C451.249,-106.882 432.749,-113.414 418,-123 402.881,-132.826 329.056,-216.231 291.314,-259.371"/>
<polygon fill="none" stroke="black" points="288.652,-257.097 284.708,-266.931 293.924,-261.703 288.652,-257.097"/>
</g>
<!-- \\Ezypay\\Contract\\IResource -->
<g id="node45" class="node"><title>\\Ezypay\\Contract\\IResource</title>
<polygon fill="none" stroke="black" points="109.5,-788 32.5,-788 32.5,-752 109.5,-752 109.5,-788"/>
<text text-anchor="middle" x="71" y="-767.2" font-family="Courier,monospace" font-size="11.00">IResource</text>
</g>
<!-- \\Ezypay\\Resource\\Payment&#45;&gt;\\Ezypay\\Contract\\IResource -->
<g id="edge18" class="edge"><title>\\Ezypay\\Resource\\Payment&#45;&gt;\\Ezypay\\Contract\\IResource</title>
<path fill="none" stroke="black" stroke-dasharray="1,5" d="M466.7,-102.187C401.847,-116.765 252.868,-159.718 181,-258 123.149,-337.114 85.4059,-646.362 74.9537,-741.796"/>
<polygon fill="none" stroke="black" points="71.4618,-741.533 73.8673,-751.851 78.4213,-742.285 71.4618,-741.533"/>
</g>
<!-- \\Ezypay\\Resource\\Customer -->
<g id="node31" class="node"><title>\\Ezypay\\Resource\\Customer</title>
<polygon fill="none" stroke="black" points="534.5,-438 463.5,-438 463.5,-402 534.5,-402 534.5,-438"/>
<text text-anchor="middle" x="499" y="-417.2" font-family="Courier,monospace" font-size="11.00">Customer</text>
</g>
<!-- \\Ezypay\\Resource\\Customer&#45;&gt;\\Ezypay\\Resource\\Resurce -->
<g id="edge20" class="edge"><title>\\Ezypay\\Resource\\Customer&#45;&gt;\\Ezypay\\Resource\\Resurce</title>
<path fill="none" stroke="black" d="M463.205,-410.763C448.81,-406.309 432.199,-400.326 418,-393 373.036,-369.8 326.682,-333.973 297.866,-310.02"/>
<polygon fill="none" stroke="black" points="299.771,-307.05 289.863,-303.298 295.269,-312.41 299.771,-307.05"/>
</g>
<!-- \\Ezypay\\Contract\\IResourceCustomer -->
<g id="node36" class="node"><title>\\Ezypay\\Contract\\IResourceCustomer</title>
<polygon fill="none" stroke="black" points="333.5,-950 202.5,-950 202.5,-914 333.5,-914 333.5,-950"/>
<text text-anchor="middle" x="268" y="-929.2" font-family="Courier,monospace" font-size="11.00">IResourceCustomer</text>
</g>
<!-- \\Ezypay\\Resource\\Customer&#45;&gt;\\Ezypay\\Contract\\IResourceCustomer -->
<g id="edge21" class="edge"><title>\\Ezypay\\Resource\\Customer&#45;&gt;\\Ezypay\\Contract\\IResourceCustomer</title>
<path fill="none" stroke="black" stroke-dasharray="1,5" d="M463.253,-423.301C447.077,-426.689 429.016,-433.475 418,-447 288.498,-606.008 494.886,-748.809 362,-905 356.791,-911.122 350.284,-915.9 343.145,-919.621"/>
<polygon fill="none" stroke="black" points="341.516,-916.515 333.815,-923.791 344.372,-922.906 341.516,-916.515"/>
</g>
<!-- \\Ezypay\\Resource\\Customer&#45;&gt;\\Ezypay\\Contract\\IResourceUpdate -->
<g id="edge23" class="edge"><title>\\Ezypay\\Resource\\Customer&#45;&gt;\\Ezypay\\Contract\\IResourceUpdate</title>
<path fill="none" stroke="black" stroke-dasharray="1,5" d="M463.346,-423.377C447.193,-426.785 429.124,-433.563 418,-447 302.401,-586.63 480.57,-713.884 362,-851 355.319,-858.726 346.572,-864.305 337.116,-868.322"/>
<polygon fill="none" stroke="black" points="335.668,-865.124 327.473,-871.839 338.067,-871.701 335.668,-865.124"/>
</g>
<!-- \\Ezypay\\Resource\\Customer&#45;&gt;\\Ezypay\\Contract\\IResourceCreate -->
<g id="edge22" class="edge"><title>\\Ezypay\\Resource\\Customer&#45;&gt;\\Ezypay\\Contract\\IResourceCreate</title>
<path fill="none" stroke="black" stroke-dasharray="1,5" d="M463.221,-423.704C447.239,-427.196 429.355,-433.952 418,-447 330.105,-547.999 452.043,-643.912 362,-743 355.131,-750.559 346.285,-756.051 336.787,-760.031"/>
<polygon fill="none" stroke="black" points="335.334,-756.835 327.121,-763.528 337.715,-763.417 335.334,-756.835"/>
</g>
<!-- \\Ezypay\\Resource\\PaymentMethod -->
<g id="node32" class="node"><title>\\Ezypay\\Resource\\PaymentMethod</title>
<polygon fill="none" stroke="black" points="551,-222 447,-222 447,-186 551,-186 551,-222"/>
<text text-anchor="middle" x="499" y="-201.2" font-family="Courier,monospace" font-size="11.00">PaymentMethod</text>
</g>
<!-- \\Ezypay\\Resource\\PaymentMethod&#45;&gt;\\Ezypay\\Resource\\Resurce -->
<g id="edge25" class="edge"><title>\\Ezypay\\Resource\\PaymentMethod&#45;&gt;\\Ezypay\\Resource\\Resurce</title>
<path fill="none" stroke="black" d="M446.729,-221.116C437.168,-224.361 427.27,-227.756 418,-231 381.251,-243.859 339.603,-259.001 309.701,-269.973"/>
<polygon fill="none" stroke="black" points="308.214,-266.791 300.034,-273.525 310.628,-273.362 308.214,-266.791"/>
</g>
<!-- \\Ezypay\\Contract\\IResourcePaymentMethods -->
<g id="node37" class="node"><title>\\Ezypay\\Contract\\IResourcePaymentMethods</title>
<polygon fill="none" stroke="black" points="354,-626 182,-626 182,-590 354,-590 354,-626"/>
<text text-anchor="middle" x="268" y="-605.2" font-family="Courier,monospace" font-size="11.00">IResourcePaymentMethods</text>
</g>
<!-- \\Ezypay\\Resource\\PaymentMethod&#45;&gt;\\Ezypay\\Contract\\IResourcePaymentMethods -->
<g id="edge26" class="edge"><title>\\Ezypay\\Resource\\PaymentMethod&#45;&gt;\\Ezypay\\Contract\\IResourcePaymentMethods</title>
<path fill="none" stroke="black" stroke-dasharray="1,5" d="M446.877,-212.192C435.959,-216.202 425.478,-222.158 418,-231 316.276,-351.288 466.283,-462.924 362,-581 361.367,-581.717 360.716,-582.415 360.049,-583.095"/>
<polygon fill="none" stroke="black" points="357.635,-580.554 352.31,-589.713 362.185,-585.874 357.635,-580.554"/>
</g>
<!-- \\Ezypay\\Resource\\PaymentMethod&#45;&gt;\\Ezypay\\Contract\\IResourceCreate -->
<g id="edge27" class="edge"><title>\\Ezypay\\Resource\\PaymentMethod&#45;&gt;\\Ezypay\\Contract\\IResourceCreate</title>
<path fill="none" stroke="black" stroke-dasharray="1,5" d="M446.973,-211.778C435.915,-215.796 425.347,-221.86 418,-231 274.574,-409.41 509.223,-567.71 362,-743 355.281,-751 346.344,-756.707 336.662,-760.763"/>
<polygon fill="none" stroke="black" points="335.424,-757.489 327.199,-764.167 337.793,-764.076 335.424,-757.489"/>
</g>
<!-- \\Ezypay\\Resource\\Subscription -->
<g id="node33" class="node"><title>\\Ezypay\\Resource\\Subscription</title>
<polygon fill="none" stroke="black" points="548,-384 450,-384 450,-348 548,-348 548,-384"/>
<text text-anchor="middle" x="499" y="-363.2" font-family="Courier,monospace" font-size="11.00">Subscription</text>
</g>
<!-- \\Ezypay\\Resource\\Subscription&#45;&gt;\\Ezypay\\Resource\\Resurce -->
<g id="edge31" class="edge"><title>\\Ezypay\\Resource\\Subscription&#45;&gt;\\Ezypay\\Resource\\Resurce</title>
<path fill="none" stroke="black" d="M449.714,-349.896C439.243,-346.35 428.239,-342.583 418,-339 381.251,-326.141 339.603,-310.999 309.701,-300.027"/>
<polygon fill="none" stroke="black" points="310.628,-296.638 300.034,-296.475 308.214,-303.209 310.628,-296.638"/>
</g>
<!-- \\Ezypay\\Contract\\IResourceSubscription -->
<g id="node40" class="node"><title>\\Ezypay\\Contract\\IResourceSubscription</title>
<polygon fill="none" stroke="black" points="347,-842 189,-842 189,-806 347,-806 347,-842"/>
<text text-anchor="middle" x="268" y="-821.2" font-family="Courier,monospace" font-size="11.00">IResourceSubscription</text>
</g>
<!-- \\Ezypay\\Resource\\Subscription&#45;&gt;\\Ezypay\\Contract\\IResourceSubscription -->
<g id="edge32" class="edge"><title>\\Ezypay\\Resource\\Subscription&#45;&gt;\\Ezypay\\Contract\\IResourceSubscription</title>
<path fill="none" stroke="black" stroke-dasharray="1,5" d="M449.654,-373.06C437.705,-377.056 426.039,-383.29 418,-393 302.401,-532.63 480.57,-659.884 362,-797 360.041,-799.265 357.905,-801.346 355.625,-803.257"/>
<polygon fill="none" stroke="black" points="353.495,-800.476 347.37,-809.121 357.549,-806.183 353.495,-800.476"/>
</g>
<!-- \\Ezypay\\Resource\\Subscription&#45;&gt;\\Ezypay\\Contract\\IResourceUpdate -->
<g id="edge34" class="edge"><title>\\Ezypay\\Resource\\Subscription&#45;&gt;\\Ezypay\\Contract\\IResourceUpdate</title>
<path fill="none" stroke="black" stroke-dasharray="1,5" d="M449.968,-372.836C437.873,-376.826 426.053,-383.112 418,-393 288.498,-552.008 494.886,-694.809 362,-851 355.23,-858.957 346.267,-864.642 336.575,-868.689"/>
<polygon fill="none" stroke="black" points="335.335,-865.415 327.106,-872.088 337.701,-872.004 335.335,-865.415"/>
</g>
<!-- \\Ezypay\\Resource\\Subscription&#45;&gt;\\Ezypay\\Contract\\IResourceCreate -->
<g id="edge33" class="edge"><title>\\Ezypay\\Resource\\Subscription&#45;&gt;\\Ezypay\\Contract\\IResourceCreate</title>
<path fill="none" stroke="black" stroke-dasharray="1,5" d="M449.788,-373.172C437.84,-377.169 426.14,-383.374 418,-393 316.276,-513.288 466.283,-624.924 362,-743 355.239,-750.655 346.449,-756.198 336.975,-760.199"/>
<polygon fill="none" stroke="black" points="335.525,-757.002 327.322,-763.708 337.916,-763.581 335.525,-757.002"/>
</g>
<!-- \\Ezypay\\Resource\\Invoice -->
<g id="node34" class="node"><title>\\Ezypay\\Resource\\Invoice</title>
<polygon fill="none" stroke="black" points="531,-330 467,-330 467,-294 531,-294 531,-330"/>
<text text-anchor="middle" x="499" y="-309.2" font-family="Courier,monospace" font-size="11.00">Invoice</text>
</g>
<!-- \\Ezypay\\Resource\\Invoice&#45;&gt;\\Ezypay\\Resource\\Resurce -->
<g id="edge35" class="edge"><title>\\Ezypay\\Resource\\Invoice&#45;&gt;\\Ezypay\\Resource\\Resurce</title>
<path fill="none" stroke="black" d="M466.639,-308.302C426.068,-303.519 355.284,-295.173 310.352,-289.876"/>
<polygon fill="none" stroke="black" points="310.69,-286.391 300.349,-288.696 309.871,-293.343 310.69,-286.391"/>
</g>
<!-- \\Ezypay\\Contract\\IResourceInvoice -->
<g id="node39" class="node"><title>\\Ezypay\\Contract\\IResourceInvoice</title>
<polygon fill="none" stroke="black" points="330.5,-734 205.5,-734 205.5,-698 330.5,-698 330.5,-734"/>
<text text-anchor="middle" x="268" y="-713.2" font-family="Courier,monospace" font-size="11.00">IResourceInvoice</text>
</g>
<!-- \\Ezypay\\Resource\\Invoice&#45;&gt;\\Ezypay\\Contract\\IResourceInvoice -->
<g id="edge36" class="edge"><title>\\Ezypay\\Resource\\Invoice&#45;&gt;\\Ezypay\\Contract\\IResourceInvoice</title>
<path fill="none" stroke="black" stroke-dasharray="1,5" d="M466.689,-314.83C449.804,-318.029 430.021,-324.785 418,-339 316.276,-459.288 466.283,-570.924 362,-689 356.016,-695.775 348.444,-700.896 340.214,-704.757"/>
<polygon fill="none" stroke="black" points="338.653,-701.613 330.692,-708.603 341.275,-708.103 338.653,-701.613"/>
</g>
<!-- \\Ezypay\\Resource\\Invoice&#45;&gt;\\Ezypay\\Contract\\IResourceUpdate -->
<g id="edge38" class="edge"><title>\\Ezypay\\Resource\\Invoice&#45;&gt;\\Ezypay\\Contract\\IResourceUpdate</title>
<path fill="none" stroke="black" stroke-dasharray="1,5" d="M466.817,-314.532C449.756,-317.627 429.756,-324.377 418,-339 274.574,-517.41 509.223,-675.71 362,-851 355.281,-859 346.344,-864.707 336.662,-868.763"/>
<polygon fill="none" stroke="black" points="335.424,-865.489 327.199,-872.167 337.793,-872.076 335.424,-865.489"/>
</g>
<!-- \\Ezypay\\Resource\\Invoice&#45;&gt;\\Ezypay\\Contract\\IResourceCreate -->
<g id="edge37" class="edge"><title>\\Ezypay\\Resource\\Invoice&#45;&gt;\\Ezypay\\Contract\\IResourceCreate</title>
<path fill="none" stroke="black" stroke-dasharray="1,5" d="M466.974,-314.66C449.965,-317.797 429.965,-324.547 418,-339 302.401,-478.63 480.57,-605.884 362,-743 355.319,-750.726 346.572,-756.305 337.116,-760.322"/>
<polygon fill="none" stroke="black" points="335.668,-757.124 327.473,-763.839 338.067,-763.701 335.668,-757.124"/>
</g>
<!-- \\Ezypay\\Contract\\IResultError&#45;&gt;\\Ezypay\\Contract\\IResult -->
<g id="edge40" class="edge"><title>\\Ezypay\\Contract\\IResultError&#45;&gt;\\Ezypay\\Contract\\IResult</title>
<path fill="none" stroke="black" d="M218.798,-1154.67C186.373,-1159.16 144.076,-1165.02 113.218,-1169.29"/>
<polygon fill="none" stroke="black" points="112.647,-1165.84 103.222,-1170.68 113.608,-1172.77 112.647,-1165.84"/>
</g>
<!-- \\Ezypay\\Contract\\IResourceCustomer&#45;&gt;\\Ezypay\\Contract\\IResource -->
<g id="edge41" class="edge"><title>\\Ezypay\\Contract\\IResourceCustomer&#45;&gt;\\Ezypay\\Contract\\IResource</title>
<path fill="none" stroke="black" d="M202.123,-916.243C194.689,-913.118 187.467,-909.404 181,-905 139.257,-876.572 105.439,-827.477 87.0697,-796.978"/>
<polygon fill="none" stroke="black" points="89.9633,-794.995 81.8731,-788.154 83.9314,-798.547 89.9633,-794.995"/>
</g>
<!-- \\Ezypay\\Contract\\IResourcePaymentMethods&#45;&gt;\\Ezypay\\Contract\\IResource -->
<g id="edge42" class="edge"><title>\\Ezypay\\Contract\\IResourcePaymentMethods&#45;&gt;\\Ezypay\\Contract\\IResource</title>
<path fill="none" stroke="black" d="M196.815,-626.11C191.266,-628.704 185.915,-631.653 181,-635 139.257,-663.428 105.439,-712.523 87.0697,-743.022"/>
<polygon fill="none" stroke="black" points="83.9314,-741.453 81.8731,-751.846 89.9633,-745.005 83.9314,-741.453"/>
</g>
<!-- \\Ezypay\\Contract\\IResourceInvoice&#45;&gt;\\Ezypay\\Contract\\IResource -->
<g id="edge43" class="edge"><title>\\Ezypay\\Contract\\IResourceInvoice&#45;&gt;\\Ezypay\\Contract\\IResource</title>
<path fill="none" stroke="black" d="M205.301,-733.086C177.621,-740.751 145.471,-749.654 119.68,-756.796"/>
<polygon fill="none" stroke="black" points="118.475,-753.498 109.771,-759.54 120.343,-760.244 118.475,-753.498"/>
</g>
<!-- \\Ezypay\\Contract\\IResourceSubscription&#45;&gt;\\Ezypay\\Contract\\IResource -->
<g id="edge44" class="edge"><title>\\Ezypay\\Contract\\IResourceSubscription&#45;&gt;\\Ezypay\\Contract\\IResource</title>
<path fill="none" stroke="black" d="M201.797,-805.944C174.842,-798.479 144.173,-789.987 119.418,-783.131"/>
<polygon fill="none" stroke="black" points="120.119,-779.694 109.548,-780.398 118.251,-786.44 120.119,-779.694"/>
</g>
<!-- \\Ezypay\\Contract\\IResourcePlan&#45;&gt;\\Ezypay\\Contract\\IResource -->
<g id="edge45" class="edge"><title>\\Ezypay\\Contract\\IResourcePlan&#45;&gt;\\Ezypay\\Contract\\IResource</title>
<path fill="none" stroke="black" d="M215.692,-976.663C203.432,-972.684 191.011,-967.028 181,-959 127.335,-915.963 94.9554,-838.871 80.6686,-797.701"/>
<polygon fill="none" stroke="black" points="83.9284,-796.414 77.4242,-788.05 77.2934,-798.644 83.9284,-796.414"/>
</g>
<!-- \\Ezypay\\Contract\\IResultList&#45;&gt;\\Ezypay\\Contract\\IResult -->
<g id="edge46" class="edge"><title>\\Ezypay\\Contract\\IResultList&#45;&gt;\\Ezypay\\Contract\\IResult</title>
<path fill="none" stroke="black" d="M222.343,-1106.57C208.9,-1110.74 194.214,-1115.69 181,-1121 157.719,-1130.36 132.572,-1142.66 112.304,-1153.16"/>
<polygon fill="none" stroke="black" points="110.597,-1150.1 103.359,-1157.84 113.842,-1156.3 110.597,-1150.1"/>
</g>
<!-- \\Ezypay\\Ezypay -->
<g id="node50" class="node"><title>\\Ezypay\\Ezypay</title>
<polygon fill="none" stroke="black" points="527.5,-60 470.5,-60 470.5,-24 527.5,-24 527.5,-60"/>
<text text-anchor="middle" x="499" y="-39.2" font-family="Courier,monospace" font-size="11.00">Ezypay</text>
</g>
</g>
</svg>
