<?xml version="1.0" encoding="UTF-8" standalone="no"?>
<!DOCTYPE svg PUBLIC "-//W3C//DTD SVG 1.1//EN"
 "http://www.w3.org/Graphics/SVG/1.1/DTD/svg11.dtd">
<!-- Generated by graphviz version 2.36.0 (20140111.2315)
 -->
<!-- Title: G Pages: 1 -->
<svg width="598pt" height="2506pt"
 viewBox="0.00 0.00 598.00 2506.00" xmlns="http://www.w3.org/2000/svg" xmlns:xlink="http://www.w3.org/1999/xlink">
<g id="graph0" class="graph" transform="scale(1 1) rotate(0) translate(4 2502)">
<title>G</title>
<polygon fill="white" stroke="none" points="-4,4 -4,-2502 594,-2502 594,4 -4,4"/>
<g id="clust1" class="cluster"><title>cluster_Global</title>
<path fill="none" stroke="gray" d="M20,-8C20,-8 570,-8 570,-8 576,-8 582,-14 582,-20 582,-20 582,-2478 582,-2478 582,-2484 576,-2490 570,-2490 570,-2490 20,-2490 20,-2490 14,-2490 8,-2484 8,-2478 8,-2478 8,-20 8,-20 8,-14 14,-8 20,-8"/>
<text text-anchor="middle" x="295" y="-2477.2" font-family="Times,serif" font-size="11.00" fill="gray">Global</text>
</g>
<g id="clust2" class="cluster"><title>cluster_\Ezypay</title>
<path fill="none" stroke="gray" d="M28,-16C28,-16 562,-16 562,-16 568,-16 574,-22 574,-28 574,-28 574,-2450 574,-2450 574,-2456 568,-2462 562,-2462 562,-2462 28,-2462 28,-2462 22,-2462 16,-2456 16,-2450 16,-2450 16,-28 16,-28 16,-22 22,-16 28,-16"/>
<text text-anchor="middle" x="295" y="-2449.2" font-family="Times,serif" font-size="11.00" fill="gray">Ezypay</text>
</g>
<g id="clust3" class="cluster"><title>cluster_\Ezypay\Result</title>
<path fill="none" stroke="gray" d="M179,-2038C179,-2038 547,-2038 547,-2038 553,-2038 559,-2044 559,-2050 559,-2050 559,-2422 559,-2422 559,-2428 553,-2434 547,-2434 547,-2434 179,-2434 179,-2434 173,-2434 167,-2428 167,-2422 167,-2422 167,-2050 167,-2050 167,-2044 173,-2038 179,-2038"/>
<text text-anchor="middle" x="363" y="-2421.2" font-family="Times,serif" font-size="11.00" fill="gray">Result</text>
</g>
<g id="clust4" class="cluster"><title>cluster_\Ezypay\Resource</title>
<path fill="none" stroke="gray" d="M226,-798C226,-798 533,-798 533,-798 539,-798 545,-804 545,-810 545,-810 545,-1236 545,-1236 545,-1242 539,-1248 533,-1248 533,-1248 226,-1248 226,-1248 220,-1248 214,-1242 214,-1236 214,-1236 214,-810 214,-810 214,-804 220,-798 226,-798"/>
<text text-anchor="middle" x="379.5" y="-1235.2" font-family="Times,serif" font-size="11.00" fill="gray">Resource</text>
</g>
<g id="clust5" class="cluster"><title>cluster_\Ezypay\Driver</title>
<path fill="none" stroke="gray" d="M462,-1850C462,-1850 508,-1850 508,-1850 514,-1850 520,-1856 520,-1862 520,-1862 520,-1910 520,-1910 520,-1916 514,-1922 508,-1922 508,-1922 462,-1922 462,-1922 456,-1922 450,-1916 450,-1910 450,-1910 450,-1862 450,-1862 450,-1856 456,-1850 462,-1850"/>
<text text-anchor="middle" x="485" y="-1909.2" font-family="Times,serif" font-size="11.00" fill="gray">Driver</text>
</g>
<g id="clust6" class="cluster"><title>cluster_\Ezypay\Object</title>
<path fill="none" stroke="gray" d="M416,-232C416,-232 554,-232 554,-232 560,-232 566,-238 566,-244 566,-244 566,-778 566,-778 566,-784 560,-790 554,-790 554,-790 416,-790 416,-790 410,-790 404,-784 404,-778 404,-778 404,-244 404,-244 404,-238 410,-232 416,-232"/>
<text text-anchor="middle" x="485" y="-777.2" font-family="Times,serif" font-size="11.00" fill="gray">Object</text>
</g>
<g id="clust7" class="cluster"><title>cluster_\Ezypay\Contract</title>
<path fill="none" stroke="gray" d="M36,-1256C36,-1256 336,-1256 336,-1256 342,-1256 348,-1262 348,-1268 348,-1268 348,-2018 348,-2018 348,-2024 342,-2030 336,-2030 336,-2030 36,-2030 36,-2030 30,-2030 24,-2024 24,-2018 24,-2018 24,-1268 24,-1268 24,-1262 30,-1256 36,-1256"/>
<text text-anchor="middle" x="186" y="-2017.2" font-family="Times,serif" font-size="11.00" fill="gray">Contract</text>
</g>
<g id="clust8" class="cluster"><title>cluster_\Ezypay\Validation</title>
<path fill="none" stroke="gray" d="M202,-70C202,-70 545,-70 545,-70 551,-70 557,-76 557,-82 557,-82 557,-212 557,-212 557,-218 551,-224 545,-224 545,-224 202,-224 202,-224 196,-224 190,-218 190,-212 190,-212 190,-82 190,-82 190,-76 196,-70 202,-70"/>
<text text-anchor="middle" x="373.5" y="-211.2" font-family="Times,serif" font-size="11.00" fill="gray">Validation</text>
</g>
<g id="clust9" class="cluster"><title>cluster_\Ezypay\Validation\Validator</title>
<path fill="none" stroke="gray" d="M433,-124C433,-124 537,-124 537,-124 543,-124 549,-130 549,-136 549,-136 549,-184 549,-184 549,-190 543,-196 537,-196 537,-196 433,-196 433,-196 427,-196 421,-190 421,-184 421,-184 421,-136 421,-136 421,-130 427,-124 433,-124"/>
<text text-anchor="middle" x="485" y="-183.2" font-family="Times,serif" font-size="11.00" fill="gray">Validator</text>
</g>
<!-- \\Ezypay\\Result\\ResultFactoryJson -->
<g id="node1" class="node"><title>\\Ezypay\\Result\\ResultFactoryJson</title>
<polygon fill="none" stroke="black" points="550.5,-2406 419.5,-2406 419.5,-2370 550.5,-2370 550.5,-2406"/>
<text text-anchor="middle" x="485" y="-2385.2" font-family="Courier,monospace" font-size="11.00">ResultFactoryJson</text>
</g>
<!-- \\Ezypay\\Result\\ResultAbstractFactory -->
<g id="node3" class="node"><title>\\Ezypay\\Result\\ResultAbstractFactory</title>
<polygon fill="none" stroke="black" points="333,-2379 175,-2379 175,-2343 333,-2343 333,-2379"/>
<text text-anchor="start" x="220" y="-2364.2" font-family="Courier,monospace" font-size="11.00">«abstract»</text>
<text text-anchor="start" x="183" y="-2352.2" font-family="Courier,monospace" font-size="11.00">ResultAbstractFactory</text>
</g>
<!-- \\Ezypay\\Result\\ResultFactoryJson&#45;&gt;\\Ezypay\\Result\\ResultAbstractFactory -->
<g id="edge1" class="edge"><title>\\Ezypay\\Result\\ResultFactoryJson&#45;&gt;\\Ezypay\\Result\\ResultAbstractFactory</title>
<path fill="none" stroke="black" d="M419.296,-2380.37C395.71,-2377.59 368.623,-2374.4 343.335,-2371.42"/>
<polygon fill="none" stroke="black" points="343.713,-2367.94 333.372,-2370.24 342.893,-2374.89 343.713,-2367.94"/>
</g>
<!-- \\Ezypay\\Result\\ResultJson -->
<g id="node2" class="node"><title>\\Ezypay\\Result\\ResultJson</title>
<polygon fill="none" stroke="black" points="527,-2190 443,-2190 443,-2154 527,-2154 527,-2190"/>
<text text-anchor="middle" x="485" y="-2169.2" font-family="Courier,monospace" font-size="11.00">ResultJson</text>
</g>
<!-- \\Ezypay\\Contract\\IResult -->
<g id="node29" class="node"><title>\\Ezypay\\Contract\\IResult</title>
<polygon fill="none" stroke="black" points="96,-2002 32,-2002 32,-1966 96,-1966 96,-2002"/>
<text text-anchor="middle" x="64" y="-1981.2" font-family="Courier,monospace" font-size="11.00">IResult</text>
</g>
<!-- \\Ezypay\\Result\\ResultJson&#45;&gt;\\Ezypay\\Contract\\IResult -->
<g id="edge2" class="edge"><title>\\Ezypay\\Result\\ResultJson&#45;&gt;\\Ezypay\\Contract\\IResult</title>
<path fill="none" stroke="black" stroke-dasharray="1,5" d="M442.857,-2184.66C381.604,-2203.07 271.806,-2234.17 255,-2226"/>
<path fill="none" stroke="black" stroke-dasharray="1,5" d="M253,-2226C159.988,-2180.77 99.8277,-2064.68 76.2609,-2011.44"/>
<polygon fill="none" stroke="black" points="79.4716,-2010.04 72.2867,-2002.26 73.0477,-2012.82 79.4716,-2010.04"/>
</g>
<!-- \\Ezypay\\Result\\ResultFactory -->
<g id="node4" class="node"><title>\\Ezypay\\Result\\ResultFactory</title>
<polygon fill="none" stroke="black" points="537,-2352 433,-2352 433,-2316 537,-2316 537,-2352"/>
<text text-anchor="middle" x="485" y="-2331.2" font-family="Courier,monospace" font-size="11.00">ResultFactory</text>
</g>
<!-- \\Ezypay\\Result\\ResultFactory&#45;&gt;\\Ezypay\\Result\\ResultAbstractFactory -->
<g id="edge3" class="edge"><title>\\Ezypay\\Result\\ResultFactory&#45;&gt;\\Ezypay\\Result\\ResultAbstractFactory</title>
<path fill="none" stroke="black" d="M432.893,-2340.03C406.601,-2343.13 373.798,-2346.99 343.546,-2350.56"/>
<polygon fill="none" stroke="black" points="342.918,-2347.11 333.397,-2351.76 343.738,-2354.06 342.918,-2347.11"/>
</g>
<!-- \\Ezypay\\Result\\ResultProducer -->
<g id="node5" class="node"><title>\\Ezypay\\Result\\ResultProducer</title>
<polygon fill="none" stroke="black" points="540.5,-2244 429.5,-2244 429.5,-2208 540.5,-2208 540.5,-2244"/>
<text text-anchor="middle" x="485" y="-2223.2" font-family="Courier,monospace" font-size="11.00">ResultProducer</text>
</g>
<!-- \\Ezypay\\Result\\ResultError -->
<g id="node6" class="node"><title>\\Ezypay\\Result\\ResultError</title>
<polygon fill="none" stroke="black" points="530.5,-2136 439.5,-2136 439.5,-2100 530.5,-2100 530.5,-2136"/>
<text text-anchor="middle" x="485" y="-2115.2" font-family="Courier,monospace" font-size="11.00">ResultError</text>
</g>
<!-- \\Ezypay\\Contract\\IResultError -->
<g id="node34" class="node"><title>\\Ezypay\\Contract\\IResultError</title>
<polygon fill="none" stroke="black" points="303,-2002 205,-2002 205,-1966 303,-1966 303,-2002"/>
<text text-anchor="middle" x="254" y="-1981.2" font-family="Courier,monospace" font-size="11.00">IResultError</text>
</g>
<!-- \\Ezypay\\Result\\ResultError&#45;&gt;\\Ezypay\\Contract\\IResultError -->
<g id="edge4" class="edge"><title>\\Ezypay\\Result\\ResultError&#45;&gt;\\Ezypay\\Contract\\IResultError</title>
<path fill="none" stroke="black" stroke-dasharray="1,5" d="M439.15,-2106.95C427.215,-2102.94 414.682,-2097.69 404,-2091 373.908,-2072.14 376.405,-2055.32 348,-2034 334.522,-2023.89 318.733,-2014.59 304.03,-2006.83"/>
<polygon fill="none" stroke="black" points="305.538,-2003.67 295.045,-2002.2 302.332,-2009.89 305.538,-2003.67"/>
</g>
<!-- \\Ezypay\\Result\\ResultList -->
<g id="node7" class="node"><title>\\Ezypay\\Result\\ResultList</title>
<polygon fill="none" stroke="black" points="527,-2082 443,-2082 443,-2046 527,-2046 527,-2082"/>
<text text-anchor="middle" x="485" y="-2061.2" font-family="Courier,monospace" font-size="11.00">ResultList</text>
</g>
<!-- \\Ezypay\\Contract\\IResultList -->
<g id="node35" class="node"><title>\\Ezypay\\Contract\\IResultList</title>
<polygon fill="none" stroke="black" points="299.5,-1948 208.5,-1948 208.5,-1912 299.5,-1912 299.5,-1948"/>
<text text-anchor="middle" x="254" y="-1927.2" font-family="Courier,monospace" font-size="11.00">IResultList</text>
</g>
<!-- \\Ezypay\\Result\\ResultList&#45;&gt;\\Ezypay\\Contract\\IResultList -->
<g id="edge5" class="edge"><title>\\Ezypay\\Result\\ResultList&#45;&gt;\\Ezypay\\Contract\\IResultList</title>
<path fill="none" stroke="black" stroke-dasharray="1,5" d="M465.815,-2045.86C441.146,-2022.2 394.764,-1981.03 348,-1957 336.083,-1950.88 322.574,-1945.95 309.619,-1942.07"/>
<polygon fill="none" stroke="black" points="310.431,-1938.66 299.855,-1939.3 308.521,-1945.4 310.431,-1938.66"/>
</g>
<!-- \\Ezypay\\Result\\resultSingle -->
<g id="node8" class="node"><title>\\Ezypay\\Result\\resultSingle</title>
<polygon fill="none" stroke="black" points="534,-2298 436,-2298 436,-2262 534,-2262 534,-2298"/>
<text text-anchor="middle" x="485" y="-2277.2" font-family="Courier,monospace" font-size="11.00">resultSingle</text>
</g>
<!-- \\Ezypay\\Result\\resultSingle&#45;&gt;\\Ezypay\\Contract\\IResult -->
<g id="edge6" class="edge"><title>\\Ezypay\\Result\\resultSingle&#45;&gt;\\Ezypay\\Contract\\IResult</title>
<path fill="none" stroke="black" stroke-dasharray="1,5" d="M435.89,-2274.91C388.068,-2268.44 313.592,-2254.49 255,-2226"/>
</g>
<!-- \\Ezypay\\Resource\\Payment -->
<g id="node9" class="node"><title>\\Ezypay\\Resource\\Payment</title>
<polygon fill="none" stroke="black" points="517,-896 453,-896 453,-860 517,-860 517,-896"/>
<text text-anchor="middle" x="485" y="-875.2" font-family="Courier,monospace" font-size="11.00">Payment</text>
</g>
<!-- \\Ezypay\\Resource\\Resurce -->
<g id="node11" class="node"><title>\\Ezypay\\Resource\\Resurce</title>
<polygon fill="none" stroke="black" points="286,-1031 222,-1031 222,-995 286,-995 286,-1031"/>
<text text-anchor="middle" x="254" y="-1010.2" font-family="Courier,monospace" font-size="11.00">Resurce</text>
</g>
<!-- \\Ezypay\\Resource\\Payment&#45;&gt;\\Ezypay\\Resource\\Resurce -->
<g id="edge7" class="edge"><title>\\Ezypay\\Resource\\Payment&#45;&gt;\\Ezypay\\Resource\\Resurce</title>
<path fill="none" stroke="black" d="M452.722,-886.165C437.57,-890.713 419.372,-897.069 404,-905 359.036,-928.2 312.682,-964.027 283.866,-987.98"/>
<polygon fill="none" stroke="black" points="281.269,-985.59 275.863,-994.702 285.771,-990.95 281.269,-985.59"/>
</g>
<!-- \\Ezypay\\Contract\\IResource -->
<g id="node32" class="node"><title>\\Ezypay\\Contract\\IResource</title>
<polygon fill="none" stroke="black" points="292.5,-1408 215.5,-1408 215.5,-1372 292.5,-1372 292.5,-1408"/>
<text text-anchor="middle" x="254" y="-1387.2" font-family="Courier,monospace" font-size="11.00">IResource</text>
</g>
<!-- \\Ezypay\\Resource\\Payment&#45;&gt;\\Ezypay\\Contract\\IResource -->
<g id="edge8" class="edge"><title>\\Ezypay\\Resource\\Payment&#45;&gt;\\Ezypay\\Contract\\IResource</title>
<path fill="none" stroke="black" stroke-dasharray="1,5" d="M452.887,-880.589C435.849,-883.702 415.849,-890.452 404,-905 274.498,-1064.01 480.886,-1206.81 348,-1363 336.813,-1376.15 319.637,-1383.09 303.076,-1386.7"/>
<polygon fill="none" stroke="black" points="302.123,-1383.31 292.904,-1388.53 303.367,-1390.2 302.123,-1383.31"/>
</g>
<!-- \\Ezypay\\Resource\\Subscription -->
<g id="node10" class="node"><title>\\Ezypay\\Resource\\Subscription</title>
<polygon fill="none" stroke="black" points="534,-1004 436,-1004 436,-968 534,-968 534,-1004"/>
<text text-anchor="middle" x="485" y="-983.2" font-family="Courier,monospace" font-size="11.00">Subscription</text>
</g>
<!-- \\Ezypay\\Resource\\Subscription&#45;&gt;\\Ezypay\\Resource\\Resurce -->
<g id="edge9" class="edge"><title>\\Ezypay\\Resource\\Subscription&#45;&gt;\\Ezypay\\Resource\\Resurce</title>
<path fill="none" stroke="black" d="M435.994,-991.66C394.579,-996.543 335.401,-1003.52 296.125,-1008.15"/>
<polygon fill="none" stroke="black" points="295.621,-1004.69 286.1,-1009.33 296.441,-1011.64 295.621,-1004.69"/>
</g>
<!-- \\Ezypay\\Contract\\IResourceCreate -->
<g id="node33" class="node"><title>\\Ezypay\\Contract\\IResourceCreate</title>
<polygon fill="none" stroke="black" points="313,-1624 195,-1624 195,-1588 313,-1588 313,-1624"/>
<text text-anchor="middle" x="254" y="-1603.2" font-family="Courier,monospace" font-size="11.00">IResourceCreate</text>
</g>
<!-- \\Ezypay\\Resource\\Subscription&#45;&gt;\\Ezypay\\Contract\\IResourceCreate -->
<g id="edge11" class="edge"><title>\\Ezypay\\Resource\\Subscription&#45;&gt;\\Ezypay\\Contract\\IResourceCreate</title>
<path fill="none" stroke="black" stroke-dasharray="1,5" d="M435.818,-992.716C423.721,-996.704 411.939,-1003.02 404,-1013 246.637,-1210.83 509.574,-1384.59 348,-1579 341.322,-1587.03 332.407,-1592.76 322.733,-1596.82"/>
<polygon fill="none" stroke="black" points="321.497,-1593.55 313.275,-1600.23 323.869,-1600.13 321.497,-1593.55"/>
</g>
<!-- \\Ezypay\\Contract\\IResourceSubscription -->
<g id="node36" class="node"><title>\\Ezypay\\Contract\\IResourceSubscription</title>
<polygon fill="none" stroke="black" points="333,-1516 175,-1516 175,-1480 333,-1480 333,-1516"/>
<text text-anchor="middle" x="254" y="-1495.2" font-family="Courier,monospace" font-size="11.00">IResourceSubscription</text>
</g>
<!-- \\Ezypay\\Resource\\Subscription&#45;&gt;\\Ezypay\\Contract\\IResourceSubscription -->
<g id="edge10" class="edge"><title>\\Ezypay\\Resource\\Subscription&#45;&gt;\\Ezypay\\Contract\\IResourceSubscription</title>
<path fill="none" stroke="black" stroke-dasharray="1,5" d="M435.968,-992.836C423.873,-996.826 412.053,-1003.11 404,-1013 274.498,-1172.01 480.886,-1314.81 348,-1471 346.008,-1473.34 343.827,-1475.49 341.493,-1477.45"/>
<polygon fill="none" stroke="black" points="339.157,-1474.81 333.024,-1483.45 343.206,-1480.53 339.157,-1474.81"/>
</g>
<!-- \\Ezypay\\Contract\\IResourceUpdate -->
<g id="node37" class="node"><title>\\Ezypay\\Contract\\IResourceUpdate</title>
<polygon fill="none" stroke="black" points="313,-1732 195,-1732 195,-1696 313,-1696 313,-1732"/>
<text text-anchor="middle" x="254" y="-1711.2" font-family="Courier,monospace" font-size="11.00">IResourceUpdate</text>
</g>
<!-- \\Ezypay\\Resource\\Subscription&#45;&gt;\\Ezypay\\Contract\\IResourceUpdate -->
<g id="edge12" class="edge"><title>\\Ezypay\\Resource\\Subscription&#45;&gt;\\Ezypay\\Contract\\IResourceUpdate</title>
<path fill="none" stroke="black" stroke-dasharray="1,5" d="M435.715,-992.635C423.618,-996.622 411.86,-1002.96 404,-1013 311.367,-1131.35 443.153,-1570.66 348,-1687 341.386,-1695.09 332.503,-1700.84 322.842,-1704.91"/>
<polygon fill="none" stroke="black" points="321.607,-1701.64 313.391,-1708.33 323.985,-1708.22 321.607,-1701.64"/>
</g>
<!-- \\Ezypay\\Resource\\Settlement -->
<g id="node12" class="node"><title>\\Ezypay\\Resource\\Settlement</title>
<polygon fill="none" stroke="black" points="527,-842 443,-842 443,-806 527,-806 527,-842"/>
<text text-anchor="middle" x="485" y="-821.2" font-family="Courier,monospace" font-size="11.00">Settlement</text>
</g>
<!-- \\Ezypay\\Resource\\Settlement&#45;&gt;\\Ezypay\\Resource\\Resurce -->
<g id="edge13" class="edge"><title>\\Ezypay\\Resource\\Settlement&#45;&gt;\\Ezypay\\Resource\\Resurce</title>
<path fill="none" stroke="black" d="M442.729,-833.6C429.703,-837.736 415.676,-843.411 404,-851 347.438,-887.762 298.029,-950.862 272.806,-986.491"/>
<polygon fill="none" stroke="black" points="269.774,-984.72 266.925,-994.925 275.516,-988.724 269.774,-984.72"/>
</g>
<!-- \\Ezypay\\Contract\\IResourceSettlement -->
<g id="node31" class="node"><title>\\Ezypay\\Contract\\IResourceSettlement</title>
<polygon fill="none" stroke="black" points="326.5,-1354 181.5,-1354 181.5,-1318 326.5,-1318 326.5,-1354"/>
<text text-anchor="middle" x="254" y="-1333.2" font-family="Courier,monospace" font-size="11.00">IResourceSettlement</text>
</g>
<!-- \\Ezypay\\Resource\\Settlement&#45;&gt;\\Ezypay\\Contract\\IResourceSettlement -->
<g id="edge14" class="edge"><title>\\Ezypay\\Resource\\Settlement&#45;&gt;\\Ezypay\\Contract\\IResourceSettlement</title>
<path fill="none" stroke="black" stroke-dasharray="1,5" d="M442.647,-828.86C428.347,-832.636 413.535,-839.293 404,-851 274.498,-1010.01 480.886,-1152.81 348,-1309 344.391,-1313.24 340.159,-1316.84 335.526,-1319.88"/>
<polygon fill="none" stroke="black" points="333.798,-1316.84 326.8,-1324.8 337.231,-1322.94 333.798,-1316.84"/>
</g>
<!-- \\Ezypay\\Resource\\Customer -->
<g id="node13" class="node"><title>\\Ezypay\\Resource\\Customer</title>
<polygon fill="none" stroke="black" points="520.5,-1220 449.5,-1220 449.5,-1184 520.5,-1184 520.5,-1220"/>
<text text-anchor="middle" x="485" y="-1199.2" font-family="Courier,monospace" font-size="11.00">Customer</text>
</g>
<!-- \\Ezypay\\Resource\\Customer&#45;&gt;\\Ezypay\\Resource\\Resurce -->
<g id="edge15" class="edge"><title>\\Ezypay\\Resource\\Customer&#45;&gt;\\Ezypay\\Resource\\Resurce</title>
<path fill="none" stroke="black" d="M449.208,-1194.36C434.495,-1190.12 417.643,-1183.87 404,-1175 347.438,-1138.24 298.029,-1075.14 272.806,-1039.51"/>
<polygon fill="none" stroke="black" points="275.516,-1037.28 266.925,-1031.08 269.774,-1041.28 275.516,-1037.28"/>
</g>
<!-- \\Ezypay\\Resource\\Customer&#45;&gt;\\Ezypay\\Contract\\IResourceCreate -->
<g id="edge17" class="edge"><title>\\Ezypay\\Resource\\Customer&#45;&gt;\\Ezypay\\Contract\\IResourceCreate</title>
<path fill="none" stroke="black" stroke-dasharray="1,5" d="M483.047,-1220.04C478.87,-1280.3 457.094,-1476.64 348,-1579 340.736,-1585.82 331.852,-1590.92 322.488,-1594.75"/>
<polygon fill="none" stroke="black" points="321.23,-1591.48 313.006,-1598.16 323.601,-1598.07 321.23,-1591.48"/>
</g>
<!-- \\Ezypay\\Resource\\Customer&#45;&gt;\\Ezypay\\Contract\\IResourceUpdate -->
<g id="edge18" class="edge"><title>\\Ezypay\\Resource\\Customer&#45;&gt;\\Ezypay\\Contract\\IResourceUpdate</title>
<path fill="none" stroke="black" stroke-dasharray="1,5" d="M484.734,-1220.45C486.51,-1291.56 483.106,-1550.65 348,-1687 340.9,-1694.17 332.019,-1699.46 322.583,-1703.36"/>
<polygon fill="none" stroke="black" points="321.225,-1700.12 313.006,-1706.81 323.601,-1706.71 321.225,-1700.12"/>
</g>
<!-- \\Ezypay\\Contract\\IResourceCustomer -->
<g id="node39" class="node"><title>\\Ezypay\\Contract\\IResourceCustomer</title>
<polygon fill="none" stroke="black" points="319.5,-1840 188.5,-1840 188.5,-1804 319.5,-1804 319.5,-1840"/>
<text text-anchor="middle" x="254" y="-1819.2" font-family="Courier,monospace" font-size="11.00">IResourceCustomer</text>
</g>
<!-- \\Ezypay\\Resource\\Customer&#45;&gt;\\Ezypay\\Contract\\IResourceCustomer -->
<g id="edge16" class="edge"><title>\\Ezypay\\Resource\\Customer&#45;&gt;\\Ezypay\\Contract\\IResourceCustomer</title>
<path fill="none" stroke="black" stroke-dasharray="1,5" d="M482.3,-1220.05C473.487,-1309.87 430.225,-1707.94 348,-1795 342.562,-1800.76 335.976,-1805.31 328.848,-1808.91"/>
<polygon fill="none" stroke="black" points="327.331,-1805.75 319.577,-1812.97 330.141,-1812.16 327.331,-1805.75"/>
</g>
<!-- \\Ezypay\\Resource\\InvoiceItem -->
<g id="node14" class="node"><title>\\Ezypay\\Resource\\InvoiceItem</title>
<polygon fill="none" stroke="black" points="530.5,-1166 439.5,-1166 439.5,-1130 530.5,-1130 530.5,-1166"/>
<text text-anchor="middle" x="485" y="-1145.2" font-family="Courier,monospace" font-size="11.00">InvoiceItem</text>
</g>
<!-- \\Ezypay\\Resource\\InvoiceItem&#45;&gt;\\Ezypay\\Resource\\Resurce -->
<g id="edge19" class="edge"><title>\\Ezypay\\Resource\\InvoiceItem&#45;&gt;\\Ezypay\\Resource\\Resurce</title>
<path fill="none" stroke="black" d="M439.423,-1135.6C427.612,-1131.61 415.073,-1126.71 404,-1121 359.036,-1097.8 312.682,-1061.97 283.866,-1038.02"/>
<polygon fill="none" stroke="black" points="285.771,-1035.05 275.863,-1031.3 281.269,-1040.41 285.771,-1035.05"/>
</g>
<!-- \\Ezypay\\Resource\\InvoiceItem&#45;&gt;\\Ezypay\\Contract\\IResourceCreate -->
<g id="edge21" class="edge"><title>\\Ezypay\\Resource\\InvoiceItem&#45;&gt;\\Ezypay\\Contract\\IResourceCreate</title>
<path fill="none" stroke="black" stroke-dasharray="1,5" d="M439.411,-1153.88C426.187,-1157.79 412.88,-1164.27 404,-1175 288.401,-1314.63 466.57,-1441.88 348,-1579 341.319,-1586.73 332.572,-1592.31 323.116,-1596.32"/>
<polygon fill="none" stroke="black" points="321.668,-1593.12 313.473,-1599.84 324.067,-1599.7 321.668,-1593.12"/>
</g>
<!-- \\Ezypay\\Resource\\InvoiceItem&#45;&gt;\\Ezypay\\Contract\\IResourceUpdate -->
<g id="edge22" class="edge"><title>\\Ezypay\\Resource\\InvoiceItem&#45;&gt;\\Ezypay\\Contract\\IResourceUpdate</title>
<path fill="none" stroke="black" stroke-dasharray="1,5" d="M439.227,-1153.73C425.991,-1157.63 412.725,-1164.15 404,-1175 260.574,-1353.41 495.223,-1511.71 348,-1687 341.281,-1695 332.344,-1700.71 322.662,-1704.76"/>
<polygon fill="none" stroke="black" points="321.424,-1701.49 313.199,-1708.17 323.793,-1708.08 321.424,-1701.49"/>
</g>
<!-- \\Ezypay\\Contract\\IResourceInvoiceItem -->
<g id="node41" class="node"><title>\\Ezypay\\Contract\\IResourceInvoiceItem</title>
<polygon fill="none" stroke="black" points="330,-1786 178,-1786 178,-1750 330,-1750 330,-1786"/>
<text text-anchor="middle" x="254" y="-1765.2" font-family="Courier,monospace" font-size="11.00">IResourceInvoiceItem</text>
</g>
<!-- \\Ezypay\\Resource\\InvoiceItem&#45;&gt;\\Ezypay\\Contract\\IResourceInvoiceItem -->
<g id="edge20" class="edge"><title>\\Ezypay\\Resource\\InvoiceItem&#45;&gt;\\Ezypay\\Contract\\IResourceInvoiceItem</title>
<path fill="none" stroke="black" stroke-dasharray="1,5" d="M439.16,-1153.67C425.921,-1157.57 412.669,-1164.1 404,-1175 246.637,-1372.83 509.574,-1546.59 348,-1741 345.219,-1744.35 342.051,-1747.29 338.601,-1749.88"/>
<polygon fill="none" stroke="black" points="336.641,-1746.98 330.092,-1755.31 340.405,-1752.88 336.641,-1746.98"/>
</g>
<!-- \\Ezypay\\Resource\\Invoice -->
<g id="node15" class="node"><title>\\Ezypay\\Resource\\Invoice</title>
<polygon fill="none" stroke="black" points="517,-1112 453,-1112 453,-1076 517,-1076 517,-1112"/>
<text text-anchor="middle" x="485" y="-1091.2" font-family="Courier,monospace" font-size="11.00">Invoice</text>
</g>
<!-- \\Ezypay\\Resource\\Invoice&#45;&gt;\\Ezypay\\Resource\\Resurce -->
<g id="edge23" class="edge"><title>\\Ezypay\\Resource\\Invoice&#45;&gt;\\Ezypay\\Resource\\Resurce</title>
<path fill="none" stroke="black" d="M452.792,-1083.65C437.98,-1078.69 420.05,-1072.62 404,-1067 367.251,-1054.14 325.603,-1039 295.701,-1028.03"/>
<polygon fill="none" stroke="black" points="296.628,-1024.64 286.034,-1024.47 294.214,-1031.21 296.628,-1024.64"/>
</g>
<!-- \\Ezypay\\Resource\\Invoice&#45;&gt;\\Ezypay\\Contract\\IResourceCreate -->
<g id="edge25" class="edge"><title>\\Ezypay\\Resource\\Invoice&#45;&gt;\\Ezypay\\Contract\\IResourceCreate</title>
<path fill="none" stroke="black" stroke-dasharray="1,5" d="M452.887,-1096.59C435.849,-1099.7 415.849,-1106.45 404,-1121 274.498,-1280.01 480.886,-1422.81 348,-1579 341.23,-1586.96 332.267,-1592.64 322.575,-1596.69"/>
<polygon fill="none" stroke="black" points="321.335,-1593.42 313.106,-1600.09 323.701,-1600 321.335,-1593.42"/>
</g>
<!-- \\Ezypay\\Resource\\Invoice&#45;&gt;\\Ezypay\\Contract\\IResourceUpdate -->
<g id="edge26" class="edge"><title>\\Ezypay\\Resource\\Invoice&#45;&gt;\\Ezypay\\Contract\\IResourceUpdate</title>
<path fill="none" stroke="black" stroke-dasharray="1,5" d="M452.76,-1096.49C435.68,-1099.57 415.68,-1106.32 404,-1121 246.637,-1318.83 509.574,-1492.59 348,-1687 341.322,-1695.03 332.407,-1700.76 322.733,-1704.82"/>
<polygon fill="none" stroke="black" points="321.497,-1701.55 313.275,-1708.23 323.869,-1708.13 321.497,-1701.55"/>
</g>
<!-- \\Ezypay\\Contract\\IResourceInvoice -->
<g id="node38" class="node"><title>\\Ezypay\\Contract\\IResourceInvoice</title>
<polygon fill="none" stroke="black" points="316.5,-1678 191.5,-1678 191.5,-1642 316.5,-1642 316.5,-1678"/>
<text text-anchor="middle" x="254" y="-1657.2" font-family="Courier,monospace" font-size="11.00">IResourceInvoice</text>
</g>
<!-- \\Ezypay\\Resource\\Invoice&#45;&gt;\\Ezypay\\Contract\\IResourceInvoice -->
<g id="edge24" class="edge"><title>\\Ezypay\\Resource\\Invoice&#45;&gt;\\Ezypay\\Contract\\IResourceInvoice</title>
<path fill="none" stroke="black" stroke-dasharray="1,5" d="M452.817,-1096.53C435.756,-1099.63 415.756,-1106.38 404,-1121 260.574,-1299.41 495.223,-1457.71 348,-1633 342.045,-1640.09 334.347,-1645.38 325.932,-1649.32"/>
<polygon fill="none" stroke="black" points="324.544,-1646.1 316.569,-1653.07 327.153,-1652.6 324.544,-1646.1"/>
</g>
<!-- \\Ezypay\\Resource\\PaymentMethod -->
<g id="node16" class="node"><title>\\Ezypay\\Resource\\PaymentMethod</title>
<polygon fill="none" stroke="black" points="537,-950 433,-950 433,-914 537,-914 537,-950"/>
<text text-anchor="middle" x="485" y="-929.2" font-family="Courier,monospace" font-size="11.00">PaymentMethod</text>
</g>
<!-- \\Ezypay\\Resource\\PaymentMethod&#45;&gt;\\Ezypay\\Resource\\Resurce -->
<g id="edge27" class="edge"><title>\\Ezypay\\Resource\\PaymentMethod&#45;&gt;\\Ezypay\\Resource\\Resurce</title>
<path fill="none" stroke="black" d="M432.729,-949.116C423.168,-952.361 413.27,-955.756 404,-959 367.251,-971.859 325.603,-987.001 295.701,-997.973"/>
<polygon fill="none" stroke="black" points="294.214,-994.791 286.034,-1001.53 296.628,-1001.36 294.214,-994.791"/>
</g>
<!-- \\Ezypay\\Contract\\IResourcePaymentMethods -->
<g id="node30" class="node"><title>\\Ezypay\\Contract\\IResourcePaymentMethods</title>
<polygon fill="none" stroke="black" points="340,-1462 168,-1462 168,-1426 340,-1426 340,-1462"/>
<text text-anchor="middle" x="254" y="-1441.2" font-family="Courier,monospace" font-size="11.00">IResourcePaymentMethods</text>
</g>
<!-- \\Ezypay\\Resource\\PaymentMethod&#45;&gt;\\Ezypay\\Contract\\IResourcePaymentMethods -->
<g id="edge28" class="edge"><title>\\Ezypay\\Resource\\PaymentMethod&#45;&gt;\\Ezypay\\Contract\\IResourcePaymentMethods</title>
<path fill="none" stroke="black" stroke-dasharray="1,5" d="M432.641,-939.996C421.731,-944.012 411.313,-950.021 404,-959 274.498,-1118.01 480.886,-1260.81 348,-1417 347.38,-1417.73 346.742,-1418.44 346.087,-1419.13"/>
<polygon fill="none" stroke="black" points="343.653,-1416.61 338.458,-1425.84 348.277,-1421.86 343.653,-1416.61"/>
</g>
<!-- \\Ezypay\\Resource\\PaymentMethod&#45;&gt;\\Ezypay\\Contract\\IResourceCreate -->
<g id="edge29" class="edge"><title>\\Ezypay\\Resource\\PaymentMethod&#45;&gt;\\Ezypay\\Contract\\IResourceCreate</title>
<path fill="none" stroke="black" stroke-dasharray="1,5" d="M432.85,-939.68C421.796,-943.701 411.261,-949.791 404,-959 318.344,-1067.63 435.968,-1472.23 348,-1579 341.357,-1587.06 332.459,-1592.8 322.792,-1596.87"/>
<polygon fill="none" stroke="black" points="321.557,-1593.6 313.338,-1600.28 323.932,-1600.18 321.557,-1593.6"/>
</g>
<!-- \\Ezypay\\Resource\\Plan -->
<g id="node17" class="node"><title>\\Ezypay\\Resource\\Plan</title>
<polygon fill="none" stroke="black" points="512,-1058 458,-1058 458,-1022 512,-1022 512,-1058"/>
<text text-anchor="middle" x="485" y="-1037.2" font-family="Courier,monospace" font-size="11.00">Plan</text>
</g>
<!-- \\Ezypay\\Resource\\Plan&#45;&gt;\\Ezypay\\Resource\\Resurce -->
<g id="edge30" class="edge"><title>\\Ezypay\\Resource\\Plan&#45;&gt;\\Ezypay\\Resource\\Resurce</title>
<path fill="none" stroke="black" d="M457.731,-1036.9C418.193,-1032.24 343.039,-1023.38 296.175,-1017.85"/>
<polygon fill="none" stroke="black" points="296.396,-1014.36 286.055,-1016.66 295.577,-1021.31 296.396,-1014.36"/>
</g>
<!-- \\Ezypay\\Resource\\Plan&#45;&gt;\\Ezypay\\Contract\\IResourceCreate -->
<g id="edge32" class="edge"><title>\\Ezypay\\Resource\\Plan&#45;&gt;\\Ezypay\\Contract\\IResourceCreate</title>
<path fill="none" stroke="black" stroke-dasharray="1,5" d="M457.913,-1041.7C439.904,-1044.34 416.95,-1050.89 404,-1067 260.574,-1245.41 495.223,-1403.71 348,-1579 341.281,-1587 332.344,-1592.71 322.662,-1596.76"/>
<polygon fill="none" stroke="black" points="321.424,-1593.49 313.199,-1600.17 323.793,-1600.08 321.424,-1593.49"/>
</g>
<!-- \\Ezypay\\Resource\\Plan&#45;&gt;\\Ezypay\\Contract\\IResourceUpdate -->
<g id="edge33" class="edge"><title>\\Ezypay\\Resource\\Plan&#45;&gt;\\Ezypay\\Contract\\IResourceUpdate</title>
<path fill="none" stroke="black" stroke-dasharray="1,5" d="M457.82,-1041.62C439.766,-1044.23 416.797,-1050.77 404,-1067 318.344,-1175.63 435.968,-1580.23 348,-1687 341.357,-1695.06 332.459,-1700.8 322.792,-1704.87"/>
<polygon fill="none" stroke="black" points="321.557,-1701.6 313.338,-1708.28 323.932,-1708.18 321.557,-1701.6"/>
</g>
<!-- \\Ezypay\\Contract\\IResourcePlan -->
<g id="node43" class="node"><title>\\Ezypay\\Contract\\IResourcePlan</title>
<polygon fill="none" stroke="black" points="306,-1570 202,-1570 202,-1534 306,-1534 306,-1570"/>
<text text-anchor="middle" x="254" y="-1549.2" font-family="Courier,monospace" font-size="11.00">IResourcePlan</text>
</g>
<!-- \\Ezypay\\Resource\\Plan&#45;&gt;\\Ezypay\\Contract\\IResourcePlan -->
<g id="edge31" class="edge"><title>\\Ezypay\\Resource\\Plan&#45;&gt;\\Ezypay\\Contract\\IResourcePlan</title>
<path fill="none" stroke="black" stroke-dasharray="1,5" d="M457.974,-1041.75C439.995,-1044.41 417.052,-1050.97 404,-1067 274.498,-1226.01 480.886,-1368.81 348,-1525 339.747,-1534.7 328.236,-1541.02 316.117,-1545.12"/>
<polygon fill="none" stroke="black" points="314.955,-1541.81 306.318,-1547.95 316.896,-1548.54 314.955,-1541.81"/>
</g>
<!-- \\Ezypay\\Driver\\Curl -->
<g id="node18" class="node"><title>\\Ezypay\\Driver\\Curl</title>
<polygon fill="none" stroke="black" points="512,-1894 458,-1894 458,-1858 512,-1858 512,-1894"/>
<text text-anchor="middle" x="485" y="-1873.2" font-family="Courier,monospace" font-size="11.00">Curl</text>
</g>
<!-- \\Ezypay\\Contract\\IDriver -->
<g id="node42" class="node"><title>\\Ezypay\\Contract\\IDriver</title>
<polygon fill="none" stroke="black" points="286,-1894 222,-1894 222,-1858 286,-1858 286,-1894"/>
<text text-anchor="middle" x="254" y="-1873.2" font-family="Courier,monospace" font-size="11.00">IDriver</text>
</g>
<!-- \\Ezypay\\Driver\\Curl&#45;&gt;\\Ezypay\\Contract\\IDriver -->
<g id="edge34" class="edge"><title>\\Ezypay\\Driver\\Curl&#45;&gt;\\Ezypay\\Contract\\IDriver</title>
<path fill="none" stroke="black" stroke-dasharray="1,5" d="M457.731,-1876C418.193,-1876 343.039,-1876 296.175,-1876"/>
<polygon fill="none" stroke="black" points="296.055,-1872.5 286.055,-1876 296.055,-1879.5 296.055,-1872.5"/>
</g>
<!-- \\Ezypay\\Object\\Payment -->
<g id="node19" class="node"><title>\\Ezypay\\Object\\Payment</title>
<polygon fill="none" stroke="black" points="517,-762 453,-762 453,-726 517,-726 517,-762"/>
<text text-anchor="middle" x="485" y="-741.2" font-family="Courier,monospace" font-size="11.00">Payment</text>
</g>
<!-- \\Ezypay\\Object\\ObjectFactory -->
<g id="node20" class="node"><title>\\Ezypay\\Object\\ObjectFactory</title>
<polygon fill="none" stroke="black" points="537,-708 433,-708 433,-672 537,-672 537,-708"/>
<text text-anchor="middle" x="485" y="-687.2" font-family="Courier,monospace" font-size="11.00">ObjectFactory</text>
</g>
<!-- \\Ezypay\\Object\\Subscription -->
<g id="node21" class="node"><title>\\Ezypay\\Object\\Subscription</title>
<polygon fill="none" stroke="black" points="534,-654 436,-654 436,-618 534,-618 534,-654"/>
<text text-anchor="middle" x="485" y="-633.2" font-family="Courier,monospace" font-size="11.00">Subscription</text>
</g>
<!-- \\Ezypay\\Object\\Settlement -->
<g id="node22" class="node"><title>\\Ezypay\\Object\\Settlement</title>
<polygon fill="none" stroke="black" points="527,-600 443,-600 443,-564 527,-564 527,-600"/>
<text text-anchor="middle" x="485" y="-579.2" font-family="Courier,monospace" font-size="11.00">Settlement</text>
</g>
<!-- \\Ezypay\\Object\\Customer -->
<g id="node23" class="node"><title>\\Ezypay\\Object\\Customer</title>
<polygon fill="none" stroke="black" points="520.5,-546 449.5,-546 449.5,-510 520.5,-510 520.5,-546"/>
<text text-anchor="middle" x="485" y="-525.2" font-family="Courier,monospace" font-size="11.00">Customer</text>
</g>
<!-- \\Ezypay\\Object\\SubscriptionPreview -->
<g id="node24" class="node"><title>\\Ezypay\\Object\\SubscriptionPreview</title>
<polygon fill="none" stroke="black" points="557.5,-492 412.5,-492 412.5,-456 557.5,-456 557.5,-492"/>
<text text-anchor="middle" x="485" y="-471.2" font-family="Courier,monospace" font-size="11.00">SubscriptionPreview</text>
</g>
<!-- \\Ezypay\\Object\\InvoiceItem -->
<g id="node25" class="node"><title>\\Ezypay\\Object\\InvoiceItem</title>
<polygon fill="none" stroke="black" points="530.5,-438 439.5,-438 439.5,-402 530.5,-402 530.5,-438"/>
<text text-anchor="middle" x="485" y="-417.2" font-family="Courier,monospace" font-size="11.00">InvoiceItem</text>
</g>
<!-- \\Ezypay\\Object\\Invoice -->
<g id="node26" class="node"><title>\\Ezypay\\Object\\Invoice</title>
<polygon fill="none" stroke="black" points="517,-384 453,-384 453,-348 517,-348 517,-384"/>
<text text-anchor="middle" x="485" y="-363.2" font-family="Courier,monospace" font-size="11.00">Invoice</text>
</g>
<!-- \\Ezypay\\Object\\PaymentMethod -->
<g id="node27" class="node"><title>\\Ezypay\\Object\\PaymentMethod</title>
<polygon fill="none" stroke="black" points="537,-330 433,-330 433,-294 537,-294 537,-330"/>
<text text-anchor="middle" x="485" y="-309.2" font-family="Courier,monospace" font-size="11.00">PaymentMethod</text>
</g>
<!-- \\Ezypay\\Object\\Plan -->
<g id="node28" class="node"><title>\\Ezypay\\Object\\Plan</title>
<polygon fill="none" stroke="black" points="512,-276 458,-276 458,-240 512,-240 512,-276"/>
<text text-anchor="middle" x="485" y="-255.2" font-family="Courier,monospace" font-size="11.00">Plan</text>
</g>
<!-- \\Ezypay\\Contract\\IResultError&#45;&gt;\\Ezypay\\Contract\\IResult -->
<g id="edge37" class="edge"><title>\\Ezypay\\Contract\\IResultError&#45;&gt;\\Ezypay\\Contract\\IResult</title>
<path fill="none" stroke="black" d="M204.585,-1984C174.16,-1984 135.328,-1984 106.35,-1984"/>
<polygon fill="none" stroke="black" points="106.153,-1980.5 96.1531,-1984 106.153,-1987.5 106.153,-1980.5"/>
</g>
<!-- \\Ezypay\\Contract\\IResultList&#45;&gt;\\Ezypay\\Contract\\IResult -->
<g id="edge38" class="edge"><title>\\Ezypay\\Contract\\IResultList&#45;&gt;\\Ezypay\\Contract\\IResult</title>
<path fill="none" stroke="black" d="M208.447,-1942.8C177.327,-1951.74 136.099,-1963.58 105.831,-1972.27"/>
<polygon fill="none" stroke="black" points="104.661,-1968.97 96.0164,-1975.09 106.594,-1975.69 104.661,-1968.97"/>
</g>
<!-- \\Ezypay\\Contract\\IValidator -->
<g id="node40" class="node"><title>\\Ezypay\\Contract\\IValidator</title>
<polygon fill="none" stroke="black" points="296,-1300 212,-1300 212,-1264 296,-1264 296,-1300"/>
<text text-anchor="middle" x="254" y="-1279.2" font-family="Courier,monospace" font-size="11.00">IValidator</text>
</g>
<!-- \\Ezypay\\Validation\\Validator\\NotEmptyString -->
<g id="node44" class="node"><title>\\Ezypay\\Validation\\Validator\\NotEmptyString</title>
<polygon fill="none" stroke="black" points="540.5,-168 429.5,-168 429.5,-132 540.5,-132 540.5,-168"/>
<text text-anchor="middle" x="485" y="-147.2" font-family="Courier,monospace" font-size="11.00">NotEmptyString</text>
</g>
<!-- \\Ezypay\\Validation\\Validator\\NotEmptyString&#45;&gt;\\Ezypay\\Contract\\IValidator -->
<g id="edge36" class="edge"><title>\\Ezypay\\Validation\\Validator\\NotEmptyString&#45;&gt;\\Ezypay\\Contract\\IValidator</title>
<path fill="none" stroke="black" stroke-dasharray="1,5" d="M456.92,-168.003C438.431,-181.964 415.311,-203.097 404,-228 309.755,-435.495 487.131,-1071.5 348,-1252 337.879,-1265.13 321.934,-1272.61 306.086,-1276.83"/>
<polygon fill="none" stroke="black" points="305.256,-1273.43 296.284,-1279.07 306.812,-1280.26 305.256,-1273.43"/>
</g>
<!-- \\Ezypay\\Validation\\Validation -->
<g id="node45" class="node"><title>\\Ezypay\\Validation\\Validation</title>
<polygon fill="none" stroke="black" points="527,-114 443,-114 443,-78 527,-78 527,-114"/>
<text text-anchor="middle" x="485" y="-93.2" font-family="Courier,monospace" font-size="11.00">Validation</text>
</g>
<!-- \\Ezypay\\Validation\\ValidationBase -->
<g id="node46" class="node"><title>\\Ezypay\\Validation\\ValidationBase</title>
<polygon fill="none" stroke="black" points="309.5,-114 198.5,-114 198.5,-78 309.5,-78 309.5,-114"/>
<text text-anchor="start" x="220" y="-99.2" font-family="Courier,monospace" font-size="11.00">«abstract»</text>
<text text-anchor="start" x="206.5" y="-87.2" font-family="Courier,monospace" font-size="11.00">ValidationBase</text>
</g>
<!-- \\Ezypay\\Validation\\Validation&#45;&gt;\\Ezypay\\Validation\\ValidationBase -->
<g id="edge35" class="edge"><title>\\Ezypay\\Validation\\Validation&#45;&gt;\\Ezypay\\Validation\\ValidationBase</title>
<path fill="none" stroke="black" d="M442.795,-96C408.56,-96 359.245,-96 319.74,-96"/>
<polygon fill="none" stroke="black" points="319.663,-92.5001 309.663,-96 319.663,-99.5001 319.663,-92.5001"/>
</g>
<!-- \\Ezypay\\Ezypay -->
<g id="node47" class="node"><title>\\Ezypay\\Ezypay</title>
<polygon fill="none" stroke="black" points="513.5,-60 456.5,-60 456.5,-24 513.5,-24 513.5,-60"/>
<text text-anchor="middle" x="485" y="-39.2" font-family="Courier,monospace" font-size="11.00">Ezypay</text>
</g>
</g>
</svg>
